<svg width="400" height="400" viewBox="0 0 400 400" xmlns="http://www.w3.org/2000/svg">
  <!-- White Circle Background (No Border) -->
  <circle cx="200" cy="200" r="190" fill="#FFFFFF"/>
  
  <!-- Black Logo (centered and scaled) -->
  <g transform="translate(33, 11) scale(0.9)">
    <path d="M0 0 C0 0.66 0 1.32 0 2 C0.598125 2.12375 1.19625 2.2475 1.8125 2.375 C4 3 4 3 7 5 C7 5.66 7 6.32 7 7 C7.66 7 8.32 7 9 7 C9 7.66 9 8.32 9 9 C9.87011719 9.35964844 9.87011719 9.35964844 10.7578125 9.7265625 C20.73058067 15.39053884 26.11604672 29.51699813 29.375 39.875 C34.54652614 61.0391448 30.17581972 80.22736706 20 99 C19.32726393 100.33028132 18.65753672 101.66214063 18 103 C17.34 103 16.68 103 16 103 C15.690625 103.78375 15.38125 104.5675 15.0625 105.375 C14 108 14 108 13 110 C12.34 110 11.68 110 11 110 C10.34 111.65 9.68 113.3 9 115 C8.34 115 7.68 115 7 115 C6.731875 115.58265625 6.46375 116.1653125 6.1875 116.765625 C4.98519009 119.02786601 3.66174087 120.80576318 2 122.75 C1.484375 123.36359375 0.96875 123.9771875 0.4375 124.609375 C-1 126 -1 126 -3 126 C-3 126.66 -3 127.32 -3 128 C-6.46153846 131 -6.46153846 131 -9 131 C-9.3403125 131.928125 -9.3403125 131.928125 -9.6875 132.875 C-11.37929835 135.61410209 -12.99244161 136.05024472 -16 137 C-16 137.66 -16 138.32 -16 139 C-17.4609375 140.2890625 -17.4609375 140.2890625 -19.375 141.625 C-20.00148438 142.07101563 -20.62796875 142.51703125 -21.2734375 142.9765625 C-23 144 -23 144 -25 144 C-25 144.66 -25 145.32 -25 146 C-29.38461538 149 -29.38461538 149 -32 149 C-32 149.66 -32 150.32 -32 151 C-33.43294498 151.84114171 -34.87154405 152.67265687 -36.3125 153.5 C-37.11300781 153.9640625 -37.91351563 154.428125 -38.73828125 154.90625 C-41 156 -41 156 -44 156 C-44 156.66 -44 157.32 -44 158 C-65.45976194 168.24678207 -85.99396129 177.96633722 -110.125 178.375 C-111.05578369 178.40118408 -111.98656738 178.42736816 -112.94555664 178.4543457 C-120.02856919 178.47132531 -126.42173512 177.23743203 -131.81982422 172.35351562 C-142.38963127 160.99883903 -142.30156397 147.59234566 -142 133 C-138 133 -138 133 -135.1875 135.1875 C-125.47007267 142.4600309 -112.76493898 144 -101 144 C-99.94425781 144 -98.88851562 144 -97.80078125 144 C-78.69869797 143.23304057 -61.82484032 135.1278978 -46 125 C-45.34 125 -44.68 125 -44 125 C-44 124.34 -44 123.68 -44 123 C-41.953125 121.34375 -41.953125 121.34375 -39.25 119.5 C-38.36828125 118.8915625 -37.4865625 118.283125 -36.578125 117.65625 C-34.42518314 116.27314796 -32.31454668 115.08156387 -30 114 C-30 113.34 -30 112.68 -30 112 C-29.34 112 -28.68 112 -28 112 C-28 111.34 -28 110.68 -28 110 C-27.2575 109.4225 -26.515 108.845 -25.75 108.25 C-22.7595095 105.80323504 -21.11175559 103.20404297 -19 100 C-18.34 100 -17.68 100 -17 100 C-16.73058594 99.26910156 -16.46117187 98.53820312 -16.18359375 97.78515625 C-15.03466535 95.08157225 -13.68529476 92.87788601 -12.0625 90.4375 C-5.99723765 80.41276321 -4.30148128 68.58502998 -6.57421875 57.09765625 C-7.80004677 52.68078388 -9.24037395 49.65631127 -12 46 C-12 45.34 -12 44.68 -12 44 C-12.66 44 -13.32 44 -14 44 C-14.556875 43.4225 -15.11375 42.845 -15.6875 42.25 C-21.51618643 36.57884563 -27.42783606 35.04289642 -35.4375 34.8125 C-43.34505178 34.94429253 -50.27789416 37.98218962 -57 42 C-57.495 42.99 -57.495 42.99 -58 44 C-58.66 44 -59.32 44 -60 44 C-60.66 45.65 -61.32 47.3 -62 49 C-62.66 49 -63.32 49 -64 49 C-64.13148438 49.54914063 -64.26296875 50.09828125 -64.3984375 50.6640625 C-64.81861009 52.29564177 -65.28624136 53.91540553 -65.7890625 55.5234375 C-68.93450174 66.25320688 -68.37326652 76.39361635 -64.62109375 86.9140625 C-64 89 -64 89 -64 93 C-63.34 93 -62.68 93 -62 93 C-61.01585567 94.91411557 -60.03786651 96.8313967 -59.0625 98.75 C-58.51722656 99.81734375 -57.97195312 100.8846875 -57.41015625 101.984375 C-56.28783725 104.38445885 -55.49498341 106.41856752 -55 109 C-54.34 109 -53.68 109 -53 109 C-51.3125 111.3125 -51.3125 111.3125 -50 114 C-50.495 115.485 -50.495 115.485 -51 117 C-51.66 117 -52.32 117 -53 117 C-53 117.66 -53 118.32 -53 119 C-59.09028782 123.21244908 -65.81324398 127.10874841 -73 129 C-76.32455414 128.33508917 -77.54952311 127.49707795 -79.8125 125 C-81 123 -81 123 -81 121 C-81.66 121 -82.32 121 -83 121 C-84.1574707 119.61401367 -84.1574707 119.61401367 -85.42578125 117.66796875 C-85.89040771 116.95745361 -86.35503418 116.24693848 -86.83374023 115.51489258 C-87.56572632 114.36283325 -87.56572632 114.36283325 -88.3125 113.1875 C-88.81015869 112.40721436 -89.30781738 111.62692871 -89.82055664 110.82299805 C-102.35442055 90.87479385 -107.38353701 67.66921122 -102.8125 44.375 C-100.01780543 33.39029774 -94.61235855 23.18139851 -88 14 C-87.34 14 -86.68 14 -86 14 C-85.505 12.515 -85.505 12.515 -85 11 C-84.34 11 -83.68 11 -83 11 C-83 10.34 -83 9.68 -83 9 C-82.34 9 -81.68 9 -81 9 C-81 8.34 -81 7.68 -81 7 C-57.62016354 -12.74850016 -26.48329848 -13.6905187 0 0 Z" fill="#000000" transform="translate(216,57)"/>
    <path d="M0 0 C0 0.66 0 1.32 0 2 C0.66 2 1.32 2 2 2 C2 2.66 2 3.32 2 4 C2.66 4 3.32 4 4 4 C4.82065069 5.87144695 5.6311584 7.74734336 6.4375 9.625 C7.11619141 11.19121094 7.11619141 11.19121094 7.80859375 12.7890625 C10.33340938 19.59364757 10.12258576 26.21092887 10.0625 33.375 C10.05798828 34.39722656 10.05347656 35.41945312 10.04882812 36.47265625 C10.037103 38.98183194 10.02069176 41.4908849 10 44 C8.68 44 7.36 44 6 44 C6 43.34 6 42.68 6 42 C5.34 41.896875 4.68 41.79375 4 41.6875 C1 41 1 41 -2.55078125 39.49609375 C-17.86405679 33.72003368 -35.70992096 38.62318219 -50 45 C-61.07577198 50.24989703 -71.24351547 57.04422423 -80.5625 65 C-83 67 -83 67 -85 67 C-85 67.66 -85 68.32 -85 69 C-85.66 69 -86.32 69 -87 69 C-87 69.66 -87 70.32 -87 71 C-88.71484375 72.65625 -88.71484375 72.65625 -90.9375 74.5 C-93.92045179 76.88926999 -93.92045179 76.88926999 -96 80 C-96.66 80 -97.32 80 -98 80 C-98.20625 80.66 -98.4125 81.32 -98.625 82 C-99.85081168 84.6744982 -100.97427653 86.26955918 -102.8125 88.5 C-110.46434029 98.57711645 -112.49578628 109.70278356 -111 122 C-109.96916069 125.08366952 -108.76643013 127.23995292 -107 130 C-107 130.66 -107 131.32 -107 132 C-106.34 132 -105.68 132 -105 132 C-105 132.66 -105 133.32 -105 134 C-104.31292969 134.20496094 -103.62585938 134.40992188 -102.91796875 134.62109375 C-101.56638672 135.02521484 -101.56638672 135.02521484 -100.1875 135.4375 C-99.29417969 135.70433594 -98.40085938 135.97117187 -97.48046875 136.24609375 C-95.64526945 136.80387873 -93.81966274 137.39344575 -92 138 C-83.41307609 139.09125491 -75.84372857 136.4201254 -68.625 131.875 C-62.07367101 124.69973491 -60.14636485 117.28849809 -60.375 107.75 C-60.38829346 106.74437012 -60.40158691 105.73874023 -60.4152832 104.70263672 C-60.77112197 93.4905627 -64.05180286 84.29752494 -70.1796875 74.8671875 C-71 73 -71 73 -70.8203125 70.8203125 C-70.41425781 69.91925781 -70.41425781 69.91925781 -70 69 C-69.01 68.67 -68.02 68.34 -67 68 C-67 67.34 -67 66.68 -67 66 C-60.88337264 61.35822298 -54.11680382 57.82914917 -47 55 C-45 56.8125 -45 56.8125 -43 59 C-43 59.99 -43 60.98 -43 62 C-42.34 62 -41.68 62 -41 62 C-39.53583091 64.64657368 -38.08401881 67.29870925 -36.6484375 69.9609375 C-35.67784713 71.75031974 -34.69014848 73.53091517 -33.6640625 75.2890625 C-26.7322752 87.78394025 -24.55361057 101.30858606 -24.5 115.4375 C-24.49379639 116.50226563 -24.48759277 117.56703125 -24.48120117 118.6640625 C-24.65208757 129.40073 -26.95761821 139.02183874 -32 148.5 C-32.34289062 149.17546875 -32.68578125 149.8509375 -33.0390625 150.546875 C-34.76858991 153.90030984 -36.46924343 157.18165745 -39 160 C-39.66 160 -40.32 160 -41 160 C-41.268125 160.598125 -41.53625 161.19625 -41.8125 161.8125 C-42.99917406 163.99847854 -44.09599113 165.41332594 -46 167 C-46.66 167 -47.32 167 -48 167 C-48 167.66 -48 168.32 -48 169 C-49.64453125 170.2890625 -49.64453125 170.2890625 -51.8125 171.625 C-52.52019531 172.07101562 -53.22789062 172.51703125 -53.95703125 172.9765625 C-56 174 -56 174 -59 174 C-59 174.66 -59 175.32 -59 176 C-76.72217861 184.39247401 -94.51058201 184.47252808 -113 179 C-116.79755904 177.5476291 -120.41954058 175.92429978 -124 174 C-124 173.34 -124 172.68 -124 172 C-124.78375 171.690625 -125.5675 171.38125 -126.375 171.0625 C-129 170 -129 170 -131 169 C-131 168.34 -131 167.68 -131 167 C-131.66 167 -132.32 167 -133 167 C-133 166.34 -133 165.68 -133 165 C-133.66 165 -134.32 165 -135 165 C-136.2890625 163.5390625 -136.2890625 163.5390625 -137.625 161.625 C-138.07101563 160.99851562 -138.51703125 160.37203125 -138.9765625 159.7265625 C-140 158 -140 158 -140 156 C-140.66 156 -141.32 156 -142 156 C-142.80063104 154.33762104 -143.59000368 152.66981875 -144.375 151 C-145.03628906 149.6078125 -145.03628906 149.6078125 -145.7109375 148.1875 C-148.73714846 140.70450564 -149.3876149 133.93734129 -149.375 125.9375 C-149.37411377 124.9261499 -149.37322754 123.9147998 -149.37231445 122.87280273 C-149.23854094 114.33913939 -147.85963255 107.03566997 -145 99 C-144.69191406 98.113125 -144.38382813 97.22625 -144.06640625 96.3125 C-143.4183126 94.52636629 -142.71803403 92.75918337 -142 91 C-141.34 91 -140.68 91 -140 91 C-139.93554688 90.34128906 -139.87109375 89.68257813 -139.8046875 89.00390625 C-138.67886694 84.80120715 -136.47412593 81.56766485 -134.125 77.9375 C-133.67769531 77.23044922 -133.23039063 76.52339844 -132.76953125 75.79492188 C-128.00581234 68.31208908 -128.00581234 68.31208908 -126 66 C-125.34 66 -124.68 66 -124 66 C-123.76410156 65.27167969 -123.52820313 64.54335938 -123.28515625 63.79296875 C-121.79462713 60.55367293 -120.02025972 58.75430654 -117.4375 56.3125 C-114.30453441 53.46343331 -114.30453441 53.46343331 -112 50 C-111.34 50 -110.68 50 -110 50 C-110 49.34 -110 48.68 -110 48 C-108.53125 46.51953125 -108.53125 46.51953125 -106.5 44.8125 C-102.82607068 41.70077339 -99.2313696 38.51847245 -95.6640625 35.28515625 C-94 34 -94 34 -92 34 C-92 33.34 -92 32.68 -92 32 C-90.5390625 30.7109375 -90.5390625 30.7109375 -88.625 29.375 C-87.99851563 28.92898437 -87.37203125 28.48296875 -86.7265625 28.0234375 C-85 27 -85 27 -83 27 C-83 26.34 -83 25.68 -83 25 C-81.50976562 23.79833984 -81.50976562 23.79833984 -79.40625 22.4609375 C-78.24428101 21.71976685 -78.24428101 21.71976685 -77.05883789 20.96362305 C-76.21442139 20.43937744 -75.37000488 19.91513184 -74.5 19.375 C-73.63431396 18.83593018 -72.76862793 18.29686035 -71.87670898 17.74145508 C-53.59191124 6.50359121 -21.21053986 -12.41592577 0 0 Z" fill="#000000" transform="translate(275,194)"/>
  </g>
</svg>
