<?xml version="1.0" standalone="no"?>
<!DOCTYPE svg PUBLIC "-//W3C//DTD SVG 1.1//EN" "http://www.w3.org/Graphics/SVG/1.1/DTD/svg11.dtd">
<svg xmlns="http://www.w3.org/2000/svg" version="1.1" width="372" height="420" viewBox="0 0 372 420">
<path d="M0 0 C0 0.66 0 1.32 0 2 C0.598125 2.12375 1.19625 2.2475 1.8125 2.375 C4 3 4 3 7 5 C7 5.66 7 6.32 7 7 C7.66 7 8.32 7 9 7 C9 7.66 9 8.32 9 9 C9.87011719 9.35964844 9.87011719 9.35964844 10.7578125 9.7265625 C20.73058067 15.39053884 26.11604672 29.51699813 29.375 39.875 C34.54652614 61.0391448 30.17581972 80.22736706 20 99 C19.32726393 100.33028132 18.65753672 101.66214063 18 103 C17.34 103 16.68 103 16 103 C15.690625 103.78375 15.38125 104.5675 15.0625 105.375 C14 108 14 108 13 110 C12.34 110 11.68 110 11 110 C10.34 111.65 9.68 113.3 9 115 C8.34 115 7.68 115 7 115 C6.731875 115.58265625 6.46375 116.1653125 6.1875 116.765625 C4.98519009 119.02786601 3.66174087 120.80576318 2 122.75 C1.484375 123.36359375 0.96875 123.9771875 0.4375 124.609375 C-1 126 -1 126 -3 126 C-3 126.66 -3 127.32 -3 128 C-6.46153846 131 -6.46153846 131 -9 131 C-9.3403125 131.928125 -9.3403125 131.928125 -9.6875 132.875 C-11.37929835 135.61410209 -12.99244161 136.05024472 -16 137 C-16 137.66 -16 138.32 -16 139 C-17.4609375 140.2890625 -17.4609375 140.2890625 -19.375 141.625 C-20.00148438 142.07101563 -20.62796875 142.51703125 -21.2734375 142.9765625 C-23 144 -23 144 -25 144 C-25 144.66 -25 145.32 -25 146 C-29.38461538 149 -29.38461538 149 -32 149 C-32 149.66 -32 150.32 -32 151 C-33.43294498 151.84114171 -34.87154405 152.67265687 -36.3125 153.5 C-37.11300781 153.9640625 -37.91351563 154.428125 -38.73828125 154.90625 C-41 156 -41 156 -44 156 C-44 156.66 -44 157.32 -44 158 C-65.45976194 168.24678207 -85.99396129 177.96633722 -110.125 178.375 C-111.05578369 178.40118408 -111.98656738 178.42736816 -112.94555664 178.4543457 C-120.02856919 178.47132531 -126.42173512 177.23743203 -131.81982422 172.35351562 C-142.38963127 160.99883903 -142.30156397 147.59234566 -142 133 C-138 133 -138 133 -135.1875 135.1875 C-125.47007267 142.4600309 -112.76493898 144 -101 144 C-99.94425781 144 -98.88851562 144 -97.80078125 144 C-78.69869797 143.23304057 -61.82484032 135.1278978 -46 125 C-45.34 125 -44.68 125 -44 125 C-44 124.34 -44 123.68 -44 123 C-41.953125 121.34375 -41.953125 121.34375 -39.25 119.5 C-38.36828125 118.8915625 -37.4865625 118.283125 -36.578125 117.65625 C-34.42518314 116.27314796 -32.31454668 115.08156387 -30 114 C-30 113.34 -30 112.68 -30 112 C-29.34 112 -28.68 112 -28 112 C-28 111.34 -28 110.68 -28 110 C-27.2575 109.4225 -26.515 108.845 -25.75 108.25 C-22.7595095 105.80323504 -21.11175559 103.20404297 -19 100 C-18.34 100 -17.68 100 -17 100 C-16.73058594 99.26910156 -16.46117187 98.53820312 -16.18359375 97.78515625 C-15.03466535 95.08157225 -13.68529476 92.87788601 -12.0625 90.4375 C-5.99723765 80.41276321 -4.30148128 68.58502998 -6.57421875 57.09765625 C-7.80004677 52.68078388 -9.24037395 49.65631127 -12 46 C-12 45.34 -12 44.68 -12 44 C-12.66 44 -13.32 44 -14 44 C-14.556875 43.4225 -15.11375 42.845 -15.6875 42.25 C-21.51618643 36.57884563 -27.42783606 35.04289642 -35.4375 34.8125 C-43.34505178 34.94429253 -50.27789416 37.98218962 -57 42 C-57.495 42.99 -57.495 42.99 -58 44 C-58.66 44 -59.32 44 -60 44 C-60.66 45.65 -61.32 47.3 -62 49 C-62.66 49 -63.32 49 -64 49 C-64.13148438 49.54914063 -64.26296875 50.09828125 -64.3984375 50.6640625 C-64.81861009 52.29564177 -65.28624136 53.91540553 -65.7890625 55.5234375 C-68.93450174 66.25320688 -68.37326652 76.39361635 -64.62109375 86.9140625 C-64 89 -64 89 -64 93 C-63.34 93 -62.68 93 -62 93 C-61.01585567 94.91411557 -60.03786651 96.8313967 -59.0625 98.75 C-58.51722656 99.81734375 -57.97195312 100.8846875 -57.41015625 101.984375 C-56.28783725 104.38445885 -55.49498341 106.41856752 -55 109 C-54.34 109 -53.68 109 -53 109 C-51.3125 111.3125 -51.3125 111.3125 -50 114 C-50.495 115.485 -50.495 115.485 -51 117 C-51.66 117 -52.32 117 -53 117 C-53 117.66 -53 118.32 -53 119 C-59.09028782 123.21244908 -65.81324398 127.10874841 -73 129 C-76.32455414 128.33508917 -77.54952311 127.49707795 -79.8125 125 C-81 123 -81 123 -81 121 C-81.66 121 -82.32 121 -83 121 C-84.1574707 119.61401367 -84.1574707 119.61401367 -85.42578125 117.66796875 C-85.89040771 116.95745361 -86.35503418 116.24693848 -86.83374023 115.51489258 C-87.56572632 114.36283325 -87.56572632 114.36283325 -88.3125 113.1875 C-88.81015869 112.40721436 -89.30781738 111.62692871 -89.82055664 110.82299805 C-102.35442055 90.87479385 -107.38353701 67.66921122 -102.8125 44.375 C-100.01780543 33.39029774 -94.61235855 23.18139851 -88 14 C-87.34 14 -86.68 14 -86 14 C-85.505 12.515 -85.505 12.515 -85 11 C-84.34 11 -83.68 11 -83 11 C-83 10.34 -83 9.68 -83 9 C-82.34 9 -81.68 9 -81 9 C-81 8.34 -81 7.68 -81 7 C-57.62016354 -12.74850016 -26.48329848 -13.6905187 0 0 Z " fill="#000000" transform="translate(216,57)"/>
<path d="M0 0 C0 0.66 0 1.32 0 2 C0.66 2 1.32 2 2 2 C2 2.66 2 3.32 2 4 C2.66 4 3.32 4 4 4 C4.82065069 5.87144695 5.6311584 7.74734336 6.4375 9.625 C7.11619141 11.19121094 7.11619141 11.19121094 7.80859375 12.7890625 C10.33340938 19.59364757 10.12258576 26.21092887 10.0625 33.375 C10.05798828 34.39722656 10.05347656 35.41945312 10.04882812 36.47265625 C10.037103 38.98183194 10.02069176 41.4908849 10 44 C8.68 44 7.36 44 6 44 C6 43.34 6 42.68 6 42 C5.34 41.896875 4.68 41.79375 4 41.6875 C1 41 1 41 -2.55078125 39.49609375 C-17.86405679 33.72003368 -35.70992096 38.62318219 -50 45 C-61.07577198 50.24989703 -71.24351547 57.04422423 -80.5625 65 C-83 67 -83 67 -85 67 C-85 67.66 -85 68.32 -85 69 C-85.66 69 -86.32 69 -87 69 C-87 69.66 -87 70.32 -87 71 C-88.71484375 72.65625 -88.71484375 72.65625 -90.9375 74.5 C-93.92045179 76.88926999 -93.92045179 76.88926999 -96 80 C-96.66 80 -97.32 80 -98 80 C-98.20625 80.66 -98.4125 81.32 -98.625 82 C-99.85081168 84.6744982 -100.97427653 86.26955918 -102.8125 88.5 C-110.46434029 98.57711645 -112.49578628 109.70278356 -111 122 C-109.96916069 125.08366952 -108.76643013 127.23995292 -107 130 C-107 130.66 -107 131.32 -107 132 C-106.34 132 -105.68 132 -105 132 C-105 132.66 -105 133.32 -105 134 C-104.31292969 134.20496094 -103.62585938 134.40992188 -102.91796875 134.62109375 C-101.56638672 135.02521484 -101.56638672 135.02521484 -100.1875 135.4375 C-99.29417969 135.70433594 -98.40085938 135.97117187 -97.48046875 136.24609375 C-95.64526945 136.80387873 -93.81966274 137.39344575 -92 138 C-83.41307609 139.09125491 -75.84372857 136.4201254 -68.625 131.875 C-62.07367101 124.69973491 -60.14636485 117.28849809 -60.375 107.75 C-60.38829346 106.74437012 -60.40158691 105.73874023 -60.4152832 104.70263672 C-60.77112197 93.4905627 -64.05180286 84.29752494 -70.1796875 74.8671875 C-71 73 -71 73 -70.8203125 70.8203125 C-70.41425781 69.91925781 -70.41425781 69.91925781 -70 69 C-69.01 68.67 -68.02 68.34 -67 68 C-67 67.34 -67 66.68 -67 66 C-60.88337264 61.35822298 -54.11680382 57.82914917 -47 55 C-45 56.8125 -45 56.8125 -43 59 C-43 59.99 -43 60.98 -43 62 C-42.34 62 -41.68 62 -41 62 C-39.53583091 64.64657368 -38.08401881 67.29870925 -36.6484375 69.9609375 C-35.67784713 71.75031974 -34.69014848 73.53091517 -33.6640625 75.2890625 C-26.7322752 87.78394025 -24.55361057 101.30858606 -24.5 115.4375 C-24.49379639 116.50226563 -24.48759277 117.56703125 -24.48120117 118.6640625 C-24.65208757 129.40073 -26.95761821 139.02183874 -32 148.5 C-32.34289062 149.17546875 -32.68578125 149.8509375 -33.0390625 150.546875 C-34.76858991 153.90030984 -36.46924343 157.18165745 -39 160 C-39.66 160 -40.32 160 -41 160 C-41.268125 160.598125 -41.53625 161.19625 -41.8125 161.8125 C-42.99917406 163.99847854 -44.09599113 165.41332594 -46 167 C-46.66 167 -47.32 167 -48 167 C-48 167.66 -48 168.32 -48 169 C-49.64453125 170.2890625 -49.64453125 170.2890625 -51.8125 171.625 C-52.52019531 172.07101562 -53.22789062 172.51703125 -53.95703125 172.9765625 C-56 174 -56 174 -59 174 C-59 174.66 -59 175.32 -59 176 C-76.72217861 184.39247401 -94.51058201 184.47252808 -113 179 C-116.79755904 177.5476291 -120.41954058 175.92429978 -124 174 C-124 173.34 -124 172.68 -124 172 C-124.78375 171.690625 -125.5675 171.38125 -126.375 171.0625 C-129 170 -129 170 -131 169 C-131 168.34 -131 167.68 -131 167 C-131.66 167 -132.32 167 -133 167 C-133 166.34 -133 165.68 -133 165 C-133.66 165 -134.32 165 -135 165 C-136.2890625 163.5390625 -136.2890625 163.5390625 -137.625 161.625 C-138.07101563 160.99851562 -138.51703125 160.37203125 -138.9765625 159.7265625 C-140 158 -140 158 -140 156 C-140.66 156 -141.32 156 -142 156 C-142.80063104 154.33762104 -143.59000368 152.66981875 -144.375 151 C-145.03628906 149.6078125 -145.03628906 149.6078125 -145.7109375 148.1875 C-148.73714846 140.70450564 -149.3876149 133.93734129 -149.375 125.9375 C-149.37411377 124.9261499 -149.37322754 123.9147998 -149.37231445 122.87280273 C-149.23854094 114.33913939 -147.85963255 107.03566997 -145 99 C-144.69191406 98.113125 -144.38382813 97.22625 -144.06640625 96.3125 C-143.4183126 94.52636629 -142.71803403 92.75918337 -142 91 C-141.34 91 -140.68 91 -140 91 C-139.93554688 90.34128906 -139.87109375 89.68257813 -139.8046875 89.00390625 C-138.67886694 84.80120715 -136.47412593 81.56766485 -134.125 77.9375 C-133.67769531 77.23044922 -133.23039063 76.52339844 -132.76953125 75.79492188 C-128.00581234 68.31208908 -128.00581234 68.31208908 -126 66 C-125.34 66 -124.68 66 -124 66 C-123.76410156 65.27167969 -123.52820313 64.54335938 -123.28515625 63.79296875 C-121.79462713 60.55367293 -120.02025972 58.75430654 -117.4375 56.3125 C-114.30453441 53.46343331 -114.30453441 53.46343331 -112 50 C-111.34 50 -110.68 50 -110 50 C-110 49.34 -110 48.68 -110 48 C-108.53125 46.51953125 -108.53125 46.51953125 -106.5 44.8125 C-102.82607068 41.70077339 -99.2313696 38.51847245 -95.6640625 35.28515625 C-94 34 -94 34 -92 34 C-92 33.34 -92 32.68 -92 32 C-90.5390625 30.7109375 -90.5390625 30.7109375 -88.625 29.375 C-87.99851563 28.92898437 -87.37203125 28.48296875 -86.7265625 28.0234375 C-85 27 -85 27 -83 27 C-83 26.34 -83 25.68 -83 25 C-81.50976562 23.79833984 -81.50976562 23.79833984 -79.40625 22.4609375 C-78.24428101 21.71976685 -78.24428101 21.71976685 -77.05883789 20.96362305 C-76.21442139 20.43937744 -75.37000488 19.91513184 -74.5 19.375 C-73.63431396 18.83593018 -72.76862793 18.29686035 -71.87670898 17.74145508 C-53.59191124 6.50359121 -21.21053986 -12.41592577 0 0 Z " fill="#000000" transform="translate(275,194)"/>
<path d="M0 0 C0 0.66 0 1.32 0 2 C0.598125 2.12375 1.19625 2.2475 1.8125 2.375 C4 3 4 3 7 5 C7 5.66 7 6.32 7 7 C7.66 7 8.32 7 9 7 C9 7.66 9 8.32 9 9 C9.87011719 9.35964844 9.87011719 9.35964844 10.7578125 9.7265625 C20.73058067 15.39053884 26.11604672 29.51699813 29.375 39.875 C34.54652614 61.0391448 30.17581972 80.22736706 20 99 C19.32726393 100.33028132 18.65753672 101.66214063 18 103 C17.34 103 16.68 103 16 103 C15.690625 103.78375 15.38125 104.5675 15.0625 105.375 C14 108 14 108 13 110 C12.34 110 11.68 110 11 110 C10.34 111.65 9.68 113.3 9 115 C8.34 115 7.68 115 7 115 C6.731875 115.58265625 6.46375 116.1653125 6.1875 116.765625 C4.98519009 119.02786601 3.66174087 120.80576318 2 122.75 C1.484375 123.36359375 0.96875 123.9771875 0.4375 124.609375 C-1 126 -1 126 -3 126 C-3 126.66 -3 127.32 -3 128 C-6.46153846 131 -6.46153846 131 -9 131 C-9.3403125 131.928125 -9.3403125 131.928125 -9.6875 132.875 C-11.37929835 135.61410209 -12.99244161 136.05024472 -16 137 C-16 137.66 -16 138.32 -16 139 C-17.4609375 140.2890625 -17.4609375 140.2890625 -19.375 141.625 C-20.00148438 142.07101563 -20.62796875 142.51703125 -21.2734375 142.9765625 C-23 144 -23 144 -25 144 C-25 144.66 -25 145.32 -25 146 C-29.38461538 149 -29.38461538 149 -32 149 C-32 149.66 -32 150.32 -32 151 C-33.43294498 151.84114171 -34.87154405 152.67265687 -36.3125 153.5 C-37.11300781 153.9640625 -37.91351563 154.428125 -38.73828125 154.90625 C-41 156 -41 156 -44 156 C-44 156.66 -44 157.32 -44 158 C-65.45976194 168.24678207 -85.99396129 177.96633722 -110.125 178.375 C-111.05578369 178.40118408 -111.98656738 178.42736816 -112.94555664 178.4543457 C-120.02856919 178.47132531 -126.42173512 177.23743203 -131.81982422 172.35351562 C-142.38963127 160.99883903 -142.30156397 147.59234566 -142 133 C-138 133 -138 133 -135.1875 135.1875 C-125.47007267 142.4600309 -112.76493898 144 -101 144 C-99.94425781 144 -98.88851562 144 -97.80078125 144 C-78.69869797 143.23304057 -61.82484032 135.1278978 -46 125 C-45.34 125 -44.68 125 -44 125 C-44 124.34 -44 123.68 -44 123 C-41.953125 121.34375 -41.953125 121.34375 -39.25 119.5 C-38.36828125 118.8915625 -37.4865625 118.283125 -36.578125 117.65625 C-34.42518314 116.27314796 -32.31454668 115.08156387 -30 114 C-30 113.34 -30 112.68 -30 112 C-29.34 112 -28.68 112 -28 112 C-28 111.34 -28 110.68 -28 110 C-27.2575 109.4225 -26.515 108.845 -25.75 108.25 C-22.7595095 105.80323504 -21.11175559 103.20404297 -19 100 C-18.34 100 -17.68 100 -17 100 C-16.73058594 99.26910156 -16.46117187 98.53820312 -16.18359375 97.78515625 C-15.03466535 95.08157225 -13.68529476 92.87788601 -12.0625 90.4375 C-5.99723765 80.41276321 -4.30148128 68.58502998 -6.57421875 57.09765625 C-7.80004677 52.68078388 -9.24037395 49.65631127 -12 46 C-12 45.34 -12 44.68 -12 44 C-12.66 44 -13.32 44 -14 44 C-14.556875 43.4225 -15.11375 42.845 -15.6875 42.25 C-21.51618643 36.57884563 -27.42783606 35.04289642 -35.4375 34.8125 C-43.34505178 34.94429253 -50.27789416 37.98218962 -57 42 C-57.495 42.99 -57.495 42.99 -58 44 C-58.66 44 -59.32 44 -60 44 C-60.66 45.65 -61.32 47.3 -62 49 C-62.66 49 -63.32 49 -64 49 C-64.13148438 49.54914063 -64.26296875 50.09828125 -64.3984375 50.6640625 C-64.81861009 52.29564177 -65.28624136 53.91540553 -65.7890625 55.5234375 C-68.93450174 66.25320688 -68.37326652 76.39361635 -64.62109375 86.9140625 C-64 89 -64 89 -64 93 C-63.34 93 -62.68 93 -62 93 C-61.01585567 94.91411557 -60.03786651 96.8313967 -59.0625 98.75 C-58.51722656 99.81734375 -57.97195312 100.8846875 -57.41015625 101.984375 C-56.28783725 104.38445885 -55.49498341 106.41856752 -55 109 C-54.34 109 -53.68 109 -53 109 C-51.3125 111.3125 -51.3125 111.3125 -50 114 C-50.495 115.485 -50.495 115.485 -51 117 C-51.66 117 -52.32 117 -53 117 C-53 117.66 -53 118.32 -53 119 C-59.09028782 123.21244908 -65.81324398 127.10874841 -73 129 C-76.32455414 128.33508917 -77.54952311 127.49707795 -79.8125 125 C-81 123 -81 123 -81 121 C-81.66 121 -82.32 121 -83 121 C-84.1574707 119.61401367 -84.1574707 119.61401367 -85.42578125 117.66796875 C-85.89040771 116.95745361 -86.35503418 116.24693848 -86.83374023 115.51489258 C-87.56572632 114.36283325 -87.56572632 114.36283325 -88.3125 113.1875 C-88.81015869 112.40721436 -89.30781738 111.62692871 -89.82055664 110.82299805 C-102.35442055 90.87479385 -107.38353701 67.66921122 -102.8125 44.375 C-100.01780543 33.39029774 -94.61235855 23.18139851 -88 14 C-87.34 14 -86.68 14 -86 14 C-85.505 12.515 -85.505 12.515 -85 11 C-84.34 11 -83.68 11 -83 11 C-83 10.34 -83 9.68 -83 9 C-82.34 9 -81.68 9 -81 9 C-81 8.34 -81 7.68 -81 7 C-57.62016354 -12.74850016 -26.48329848 -13.6905187 0 0 Z M-51 -6 C-51 -5.34 -51 -4.68 -51 -4 C-51.804375 -4.061875 -52.60875 -4.12375 -53.4375 -4.1875 C-57.97648733 -3.94860593 -61.76901601 -2.57956736 -66 -1 C-66 -0.34 -66 0.32 -66 1 C-67.32 1 -68.64 1 -70 1 C-71.56512772 2.28307909 -71.56512772 2.28307909 -73 4 C-75.07385253 5.77528232 -77.16252005 7.53133543 -79.2578125 9.28125 C-81.24620869 10.98319228 -81.24620869 10.98319228 -82 14 C-83.33333333 14.66666667 -84.66666667 15.33333333 -86 16 C-86.495 17.485 -86.495 17.485 -87 19 C-87.66 19 -88.32 19 -89 19 C-89.495 21.475 -89.495 21.475 -90 24 C-90.66 24 -91.32 24 -92 24 C-92 25.32 -92 26.64 -92 28 C-92.66 28 -93.32 28 -94 28 C-94 28.99 -94 29.98 -94 31 C-94.66 31 -95.32 31 -96 31 C-96 32.32 -96 33.64 -96 35 C-96.66 35 -97.32 35 -98 35 C-98.19916016 36.17369141 -98.19916016 36.17369141 -98.40234375 37.37109375 C-98.57894531 38.38300781 -98.75554687 39.39492187 -98.9375 40.4375 C-99.11152344 41.44683594 -99.28554687 42.45617187 -99.46484375 43.49609375 C-100 46 -100 46 -101 47 C-101.21958278 51.1665371 -101.18578817 55.3364633 -101.18530273 59.50830078 C-101.18746947 61.59559117 -101.20556291 63.68233589 -101.22460938 65.76953125 C-101.22754732 67.1093732 -101.22952943 68.44921766 -101.23046875 69.7890625 C-101.23457764 71.00287598 -101.23868652 72.21668945 -101.24291992 73.46728516 C-100.98442631 77.2264837 -100.13575949 80.41655297 -99 84 C-98.64628502 85.66246041 -98.30404678 87.32774271 -98 89 C-97.34 89 -96.68 89 -96 89 C-96 90.98 -96 92.96 -96 95 C-95.34 95 -94.68 95 -94 95 C-94 95.99 -94 96.98 -94 98 C-93.34 98 -92.68 98 -92 98 C-92 99.32 -92 100.64 -92 102 C-91.34 102 -90.68 102 -90 102 C-89.814375 103.11375 -89.814375 103.11375 -89.625 104.25 C-89.04513299 106.80141485 -88.26291261 108.7267573 -87 111 C-86.34 111 -85.68 111 -85 111 C-84.67 112.65 -84.34 114.3 -84 116 C-83.34 116 -82.68 116 -82 116 C-82 116.66 -82 117.32 -82 118 C-81.34 118 -80.68 118 -80 118 C-80 118.99 -80 119.98 -80 121 C-79.34 121 -78.68 121 -78 121 C-78 121.66 -78 122.32 -78 123 C-77.34 123 -76.68 123 -76 123 C-75.67 123.99 -75.34 124.98 -75 126 C-72.36 125.67 -69.72 125.34 -67 125 C-67 124.34 -67 123.68 -67 123 C-65.02 122.34 -63.04 121.68 -61 121 C-61 120.34 -61 119.68 -61 119 C-60.4225 118.87625 -59.845 118.7525 -59.25 118.625 C-56.97664233 117.99351176 -55.0746471 117.11141809 -53 116 C-53.309375 115.4225 -53.61875 114.845 -53.9375 114.25 C-54.92583364 112.15705816 -55.5168613 110.25464725 -56 108 C-56.66 108 -57.32 108 -58 108 C-58.4021875 106.948125 -58.4021875 106.948125 -58.8125 105.875 C-59.98156059 102.9470218 -59.98156059 102.9470218 -61.5 100 C-62.81568303 97.36863393 -63.9501581 94.74574035 -65 92 C-65.66 92 -66.32 92 -67 92 C-66.79375 91.38125 -66.5875 90.7625 -66.375 90.125 C-66.189375 89.073125 -66.189375 89.073125 -66 88 C-66.66 87.34 -67.32 86.68 -68 86 C-70.31992074 80.73714093 -70.33346625 75.76911506 -70.3125 70.125 C-70.32861328 69.26519531 -70.34472656 68.40539062 -70.36132812 67.51953125 C-70.36744471 59.45787539 -68.12509675 53.44840369 -64 46.5625 C-63.505 45.71816406 -63.01 44.87382813 -62.5 44.00390625 C-61 42 -61 42 -58 41 C-58 40.34 -58 39.68 -58 39 C-57.34 39 -56.68 39 -56 39 C-56 38.34 -56 37.68 -56 37 C-54.35 36.67 -52.7 36.34 -51 36 C-51 35.34 -51 34.68 -51 34 C-50.030625 34.020625 -49.06125 34.04125 -48.0625 34.0625 C-45.12534105 34.35618499 -45.12534105 34.35618499 -44 33 C-41.14122091 32.76298761 -38.30116703 32.57780818 -35.4375 32.4375 C-34.63119141 32.39431641 -33.82488281 32.35113281 -32.99414062 32.30664062 C-30.99631195 32.20024738 -28.9981793 32.09959112 -27 32 C-27 32.66 -27 33.32 -27 34 C-25.02 34 -23.04 34 -21 34 C-21 34.66 -21 35.32 -21 36 C-17.77885843 38.31592022 -17.77885843 38.31592022 -14 39 C-14 39.66 -14 40.32 -14 41 C-13.34 41 -12.68 41 -12 41 C-12 41.66 -12 42.32 -12 43 C-11.34 43 -10.68 43 -10 43 C-8.79371992 45.33214148 -7.8345262 47.49642139 -7 50 C-6.34 50 -5.68 50 -5 50 C-5 51.65 -5 53.3 -5 55 C-4.34 55 -3.68 55 -3 55 C-3.08148343 58.68836336 -3.19427268 62.37514597 -3.3125 66.0625 C-3.34633789 67.62000977 -3.34633789 67.62000977 -3.38085938 69.20898438 C-3.59222714 75.26178866 -4.31644282 79.58252397 -7 85 C-7 85.99 -7 86.98 -7 88 C-7.66 88 -8.32 88 -9 88 C-9.45375 89.093125 -9.9075 90.18625 -10.375 91.3125 C-11.41642091 93.82137765 -12.46478044 95.69717067 -14 98 C-14 98.99 -14 99.98 -14 101 C-14.66 101 -15.32 101 -16 101 C-16 101.66 -16 102.32 -16 103 C-17.485 103.495 -17.485 103.495 -19 104 C-21.2085766 105.87508162 -21.2085766 105.87508162 -23 108 C-23 108.66 -23 109.32 -23 110 C-23.66 110 -24.32 110 -25 110 C-26.66666667 111.33333333 -26.66666667 111.33333333 -28 113 C-28 113.66 -28 114.32 -28 115 C-28.66 115 -29.32 115 -30 115 C-30 115.66 -30 116.32 -30 117 C-30.66 117 -31.32 117 -32 117 C-32 117.66 -32 118.32 -32 119 C-32.78375 119.309375 -33.5675 119.61875 -34.375 119.9375 C-36.92330128 120.92875038 -36.92330128 120.92875038 -39 122 C-39 122.66 -39 123.32 -39 124 C-39.66 124 -40.32 124 -41 124 C-41 124.66 -41 125.32 -41 126 C-41.99 126 -42.98 126 -44 126 C-44 126.66 -44 127.32 -44 128 C-44.66 128 -45.32 128 -46 128 C-46 128.66 -46 129.32 -46 130 C-46.7425 130.12375 -47.485 130.2475 -48.25 130.375 C-50.80141485 130.95486701 -52.7267573 131.73708739 -55 133 C-55 133.66 -55 134.32 -55 135 C-56.32 135 -57.64 135 -59 135 C-59 135.66 -59 136.32 -59 137 C-61.31 137.33 -63.62 137.66 -66 138 C-66 138.66 -66 139.32 -66 140 C-67.65 140 -69.3 140 -71 140 C-71 140.66 -71 141.32 -71 142 C-72.98 142 -74.96 142 -77 142 C-77 142.66 -77 143.32 -77 144 C-82.28 144.33 -87.56 144.66 -93 145 C-93 145.66 -93 146.32 -93 147 C-99.27 147 -105.54 147 -112 147 C-112 146.34 -112 145.68 -112 145 C-116.95 144.67 -121.9 144.34 -127 144 C-127 143.34 -127 142.68 -127 142 C-128.32 142 -129.64 142 -131 142 C-131 141.34 -131 140.68 -131 140 C-131.99 140 -132.98 140 -134 140 C-134.33 139.01 -134.66 138.02 -135 137 C-136.65 137 -138.3 137 -140 137 C-139.67 142.94 -139.34 148.88 -139 155 C-138.34 155 -137.68 155 -137 155 C-137 156.98 -137 158.96 -137 161 C-136.34 161 -135.68 161 -135 161 C-135 161.99 -135 162.98 -135 164 C-134.34 164 -133.68 164 -133 164 C-132.505 166.475 -132.505 166.475 -132 169 C-131.34 169 -130.68 169 -130 169 C-130 169.66 -130 170.32 -130 171 C-129.34 171 -128.68 171 -128 171 C-128 171.66 -128 172.32 -128 173 C-116.23959213 177.74939548 -103.35044245 176.46530673 -91 175 C-91 174.34 -91 173.68 -91 173 C-88.69 173 -86.38 173 -84 173 C-84 172.34 -84 171.68 -84 171 C-83.27941406 171.03996094 -82.55882812 171.07992187 -81.81640625 171.12109375 C-78.74499428 170.98903582 -76.74479027 170.28174044 -73.9375 169.0625 C-70.97005346 167.78681805 -68.15858145 166.69299131 -65 166 C-65 165.34 -65 164.68 -65 164 C-63.68 164 -62.36 164 -61 164 C-61 163.34 -61 162.68 -61 162 C-60.44828125 161.87753906 -59.8965625 161.75507813 -59.328125 161.62890625 C-56.70408745 160.92006389 -54.2663047 159.96388744 -51.75 158.9375 C-50.85796875 158.57527344 -49.9659375 158.21304688 -49.046875 157.83984375 C-48.37140625 157.56269531 -47.6959375 157.28554687 -47 157 C-47 156.34 -47 155.68 -47 155 C-46.01 155 -45.02 155 -44 155 C-44 154.34 -44 153.68 -44 153 C-42.68 153 -41.36 153 -40 153 C-40 152.34 -40 151.68 -40 151 C-38.35 150.67 -36.7 150.34 -35 150 C-35 149.34 -35 148.68 -35 148 C-34.34 148 -33.68 148 -33 148 C-33 147.34 -33 146.68 -33 146 C-31.68 146 -30.36 146 -29 146 C-28.67 145.34 -28.34 144.68 -28 144 C-25.9375 143.375 -25.9375 143.375 -24 143 C-24 142.34 -24 141.68 -24 141 C-23.34 141 -22.68 141 -22 141 C-22 140.34 -22 139.68 -22 139 C-20.35 138.34 -18.7 137.68 -17 137 C-17 136.34 -17 135.68 -17 135 C-16.443125 134.938125 -15.88625 134.87625 -15.3125 134.8125 C-11.99913528 133.64834483 -10.29524704 131.60541556 -8 129 C-7.67 128.01 -7.34 127.02 -7 126 C-4.9375 124.8125 -4.9375 124.8125 -3 124 C-3 123.34 -3 122.68 -3 122 C-2.34 122 -1.68 122 -1 122 C-1 121.34 -1 120.68 -1 120 C-0.34 120 0.32 120 1 120 C4.63633539 116.52001493 4.63633539 116.52001493 6 112 C6.66 112 7.32 112 8 112 C8 111.34 8 110.68 8 110 C8.66 110 9.32 110 10 110 C12.31592022 106.77885843 12.31592022 106.77885843 13 103 C13.66 103 14.32 103 15 103 C15 102.01 15 101.02 15 100 C15.66 100 16.32 100 17 100 C19.35910353 95.7362719 19.35910353 95.7362719 20 91 C20.66 91 21.32 91 22 91 C22 89.35 22 87.7 22 86 C22.66 86 23.32 86 24 86 C24 84.68 24 83.36 24 82 C24.66 82 25.32 82 26 82 C26.85298376 78.32612505 27.10789471 74.9552607 27.0625 71.1875 C27.05347656 70.21167969 27.04445312 69.23585938 27.03515625 68.23046875 C27.02355469 67.49441406 27.01195312 66.75835937 27 66 C27.66 66 28.32 66 29 66 C29.02685095 63.52076199 29.04676547 61.0418116 29.0625 58.5625 C29.07087891 57.85544922 29.07925781 57.14839844 29.08789062 56.41992188 C29.09653588 54.61306441 29.05220011 52.80612397 29 51 C28.67 50.67 28.34 50.34 28 50 C27.64933686 48.13176109 27.34470301 46.25479858 27.0625 44.375 C26.33223296 39.7737686 25.41123209 35.43530086 24 31 C23.34 31 22.68 31 22 31 C22 30.01 22 29.02 22 28 C21.34 28 20.68 28 20 28 C19.87625 27.2575 19.7525 26.515 19.625 25.75 C19.04513299 23.19858515 18.26291261 21.2732427 17 19 C16.34 19 15.68 19 15 19 C15 18.34 15 17.68 15 17 C14.34 17 13.68 17 13 17 C11.79371992 14.66785852 10.8345262 12.50357861 10 10 C7.13149298 8.06181958 4.11650396 6.50053894 1 5 C1 4.34 1 3.68 1 3 C-0.32 3 -1.64 3 -3 3 C-3 2.34 -3 1.68 -3 1 C-3.99 1 -4.98 1 -6 1 C-6 0.34 -6 -0.32 -6 -1 C-7.35347689 -1.46036629 -8.707827 -1.91816537 -10.0625 -2.375 C-10.81660156 -2.63023438 -11.57070312 -2.88546875 -12.34765625 -3.1484375 C-13.22292969 -3.42945313 -14.09820312 -3.71046875 -15 -4 C-16.06476563 -4.34353516 -17.12953125 -4.68707031 -18.2265625 -5.04101562 C-22.00788231 -6.00200322 -25.13767255 -6.22988736 -29.02734375 -6.1953125 C-30.31318359 -6.18886719 -31.59902344 -6.18242188 -32.92382812 -6.17578125 C-34.26172154 -6.15907601 -35.59961217 -6.14214619 -36.9375 -6.125 C-38.30272783 -6.11495322 -39.6679628 -6.10583036 -41.03320312 -6.09765625 C-44.35565199 -6.07417605 -47.67773321 -6.04133359 -51 -6 Z " fill="#272727" transform="translate(216,57)"/>
<path d="M0 0 C0 0.66 0 1.32 0 2 C0.66 2 1.32 2 2 2 C2 2.66 2 3.32 2 4 C2.66 4 3.32 4 4 4 C4.82065069 5.87144695 5.6311584 7.74734336 6.4375 9.625 C6.88996094 10.66914063 7.34242188 11.71328125 7.80859375 12.7890625 C10.33340938 19.59364757 10.12258576 26.21092887 10.0625 33.375 C10.05798828 34.39722656 10.05347656 35.41945312 10.04882812 36.47265625 C10.037103 38.98183194 10.02069176 41.4908849 10 44 C8.68 44 7.36 44 6 44 C6 43.34 6 42.68 6 42 C5.34 41.896875 4.68 41.79375 4 41.6875 C1 41 1 41 -2.55078125 39.49609375 C-17.86405679 33.72003368 -35.70992096 38.62318219 -50 45 C-61.07577198 50.24989703 -71.24351547 57.04422423 -80.5625 65 C-83 67 -83 67 -85 67 C-85 67.66 -85 68.32 -85 69 C-85.66 69 -86.32 69 -87 69 C-87 69.66 -87 70.32 -87 71 C-88.71484375 72.65625 -88.71484375 72.65625 -90.9375 74.5 C-93.92045179 76.88926999 -93.92045179 76.88926999 -96 80 C-96.66 80 -97.32 80 -98 80 C-98.309375 80.99 -98.309375 80.99 -98.625 82 C-99.85081168 84.6744982 -100.97427653 86.26955918 -102.8125 88.5 C-110.46434029 98.57711645 -112.49578628 109.70278356 -111 122 C-109.96916069 125.08366952 -108.76643013 127.23995292 -107 130 C-107 130.66 -107 131.32 -107 132 C-106.34 132 -105.68 132 -105 132 C-105 132.66 -105 133.32 -105 134 C-103.95199219 134.30744141 -103.95199219 134.30744141 -102.8828125 134.62109375 C-101.51769531 135.02521484 -101.51769531 135.02521484 -100.125 135.4375 C-99.22007812 135.70433594 -98.31515625 135.97117187 -97.3828125 136.24609375 C-95 137 -95 137 -93 138 C-93 138.66 -93 139.32 -93 140 C-95.97 139.67 -98.94 139.34 -102 139 C-102 138.34 -102 137.68 -102 137 C-102.66 137 -103.32 137 -104 137 C-104 136.34 -104 135.68 -104 135 C-104.5775 134.938125 -105.155 134.87625 -105.75 134.8125 C-109.57715954 133.43047017 -111.19474565 130.67561436 -112.91796875 127.08984375 C-116.95901687 116.63624041 -115.11274761 106.4499384 -112 96 C-111.34 96 -110.68 96 -110 96 C-110 95.01 -110 94.02 -110 93 C-109.34 93 -108.68 93 -108 93 C-108 91.68 -108 90.36 -108 89 C-107.34 89 -106.68 89 -106 89 C-105.690625 88.21625 -105.38125 87.4325 -105.0625 86.625 C-104 84 -104 84 -103 82 C-102.34 82 -101.68 82 -101 82 C-101 81.34 -101 80.68 -101 80 C-100.34 80 -99.68 80 -99 80 C-98.773125 79.46375 -98.54625 78.9275 -98.3125 78.375 C-96.54429911 75.17539839 -94.46329797 72.70962777 -92 70 C-91.34 70 -90.68 70 -90 70 C-90 69.34 -90 68.68 -90 68 C-87.525 67.01 -87.525 67.01 -85 66 C-85 65.34 -85 64.68 -85 64 C-84.34 64 -83.68 64 -83 64 C-83 63.34 -83 62.68 -83 62 C-76.25 58 -76.25 58 -74 58 C-73.34 56.68 -72.68 55.36 -72 54 C-70.68 54 -69.36 54 -68 54 C-67.34 52.68 -66.68 51.36 -66 50 C-65.01 50 -64.02 50 -63 50 C-63 49.34 -63 48.68 -63 48 C-56.375 45 -56.375 45 -53 45 C-53 44.34 -53 43.68 -53 43 C-51.68 43 -50.36 43 -49 43 C-49 42.34 -49 41.68 -49 41 C-39.58997722 37.55580866 -39.58997722 37.55580866 -35 38 C-35 37.34 -35 36.68 -35 36 C-32.03 36 -29.06 36 -26 36 C-26 35.34 -26 34.68 -26 34 C-20.72 34 -15.44 34 -10 34 C-10 34.66 -10 35.32 -10 36 C-8.824375 35.938125 -7.64875 35.87625 -6.4375 35.8125 C-1.96039699 35.78855827 1.0241888 37.0120944 5 39 C5 39.66 5 40.32 5 41 C5.99 41 6.98 41 8 41 C8 33.74 8 26.48 8 19 C7.34 19 6.68 19 6 19 C4.80712589 15.12315913 4 12.08378077 4 8 C3.34 8 2.68 8 2 8 C1.01 5.525 1.01 5.525 0 3 C-0.99 3 -1.98 3 -3 3 C-3 2.34 -3 1.68 -3 1 C-12.57 1 -22.14 1 -32 1 C-32 1.66 -32 2.32 -32 3 C-33.32 3 -34.64 3 -36 3 C-35.67 2.01 -35.34 1.02 -35 0 C-24.62860348 -4.07807339 -9.92653086 -5.81065221 0 0 Z " fill="#313131" transform="translate(275,194)"/>
<path d="M0 0 C0.66 0 1.32 0 2 0 C2 2.97 2 5.94 2 9 C1.34 9 0.68 9 0 9 C0 12.3 0 15.6 0 19 C0.66 19 1.32 19 2 19 C2 22.63 2 26.26 2 30 C2.66 30 3.32 30 4 30 C4 31.65 4 33.3 4 35 C4.66 35 5.32 35 6 35 C6.33 37.31 6.66 39.62 7 42 C7.66 42 8.32 42 9 42 C9 43.32 9 44.64 9 46 C9.556875 46.226875 10.11375 46.45375 10.6875 46.6875 C13.66159588 48.37550036 15.72008865 50.46676517 18 53 C18 53.66 18 54.32 18 55 C18.66 55 19.32 55 20 55 C20 55.66 20 56.32 20 57 C20.78375 57.309375 21.5675 57.61875 22.375 57.9375 C25 59 25 59 27 60 C27 60.66 27 61.32 27 62 C27.99 62 28.98 62 30 62 C30 62.66 30 63.32 30 64 C32.97 64.33 35.94 64.66 39 65 C39 65.66 39 66.32 39 67 C40.11375 66.979375 41.2275 66.95875 42.375 66.9375 C46 67 46 67 48 68 C49.57062514 68.09572577 51.1452118 68.1307405 52.71875 68.1328125 C54.11673828 68.13474609 54.11673828 68.13474609 55.54296875 68.13671875 C56.51878906 68.13285156 57.49460938 68.12898438 58.5 68.125 C59.47582031 68.12886719 60.45164063 68.13273437 61.45703125 68.13671875 C62.38902344 68.13542969 63.32101563 68.13414062 64.28125 68.1328125 C65.13783203 68.13168457 65.99441406 68.13055664 66.87695312 68.12939453 C69.05491534 68.13586446 69.05491534 68.13586446 71 67 C73.3329866 66.95977609 75.66706666 66.95679753 78 67 C78 66.34 78 65.68 78 65 C80.64 64.67 83.28 64.34 86 64 C86 63.34 86 62.68 86 62 C87.32 62 88.64 62 90 62 C90 61.34 90 60.68 90 60 C94.38461538 57 94.38461538 57 97 57 C97 56.34 97 55.68 97 55 C97.99 55 98.98 55 100 55 C100 54.34 100 53.68 100 53 C100.66 53 101.32 53 102 53 C102 52.34 102 51.68 102 51 C103.6454378 49.31237149 105.31288577 47.6459651 107 46 C107.495 45.01 107.495 45.01 108 44 C108.66 44 109.32 44 110 44 C110.33 42.35 110.66 40.7 111 39 C111.66 39 112.32 39 113 39 C113 37.68 113 36.36 113 35 C113.66 35 114.32 35 115 35 C115.144375 34.030625 115.28875 33.06125 115.4375 32.0625 C116 29 116 29 117 28 C117.36760731 25.67182036 117.70241581 23.3381615 118 21 C118.99 21 119.98 21 121 21 C120.53762014 27.2491339 119.04721202 31.74074006 116.125 37.25 C115.77308594 37.94351563 115.42117187 38.63703125 115.05859375 39.3515625 C111.53427494 46.19057521 111.53427494 46.19057521 109 49 C108.34 49 107.68 49 107 49 C106.731875 49.598125 106.46375 50.19625 106.1875 50.8125 C105.00082594 52.99847854 103.90400887 54.41332594 102 56 C101.34 56 100.68 56 100 56 C100 56.66 100 57.32 100 58 C98.35546875 59.2890625 98.35546875 59.2890625 96.1875 60.625 C95.47980469 61.07101562 94.77210938 61.51703125 94.04296875 61.9765625 C92 63 92 63 89 63 C89 63.66 89 64.32 89 65 C71.27782139 73.39247401 53.48941799 73.47252808 35 68 C31.20244096 66.5476291 27.58045942 64.92429978 24 63 C24 62.34 24 61.68 24 61 C23.21625 60.690625 22.4325 60.38125 21.625 60.0625 C19 59 19 59 17 58 C17 57.34 17 56.68 17 56 C16.34 56 15.68 56 15 56 C15 55.34 15 54.68 15 54 C14.34 54 13.68 54 13 54 C11.7109375 52.5390625 11.7109375 52.5390625 10.375 50.625 C9.92898437 49.99851562 9.48296875 49.37203125 9.0234375 48.7265625 C8 47 8 47 8 45 C7.34 45 6.68 45 6 45 C5.19936896 43.33762104 4.40999632 41.66981875 3.625 40 C3.18414062 39.071875 2.74328125 38.14375 2.2890625 37.1875 C-0.86774158 29.38158445 -1.28795524 22.52528509 -1.1875 14.1875 C-1.18685547 13.15173828 -1.18621094 12.11597656 -1.18554688 11.04882812 C-1.14095052 3.42285156 -1.14095052 3.42285156 0 0 Z " fill="#323232" transform="translate(127,305)"/>
<path d="M0 0 C2.5 1.8125 2.5 1.8125 5 4 C5 4.99 5 5.98 5 7 C5.66 7 6.32 7 7 7 C8.46416909 9.64657368 9.91598119 12.29870925 11.3515625 14.9609375 C12.32215287 16.75031974 13.30985152 18.53091517 14.3359375 20.2890625 C23.08273829 36.05558877 25.23799407 55.28150671 23 73 C22.34 73.99 21.68 74.98 21 76 C20 75 20 75 19.90234375 73.15234375 C19.93489583 71.1015625 19.96744792 69.05078125 20 67 C20.66 67 21.32 67 22 67 C21.85966889 65.02043559 21.7125877 63.04134859 21.5625 61.0625 C21.48128906 59.96035156 21.40007812 58.85820312 21.31640625 57.72265625 C21.29581916 55.08890097 21.29581916 55.08890097 20 54 C19.92773498 52.14712498 19.9161878 50.29166122 19.9375 48.4375 C19.94652344 47.42558594 19.95554688 46.41367187 19.96484375 45.37109375 C19.97644531 44.58863281 19.98804688 43.80617188 20 43 C19.34 43 18.68 43 18 43 C18 40.36 18 37.72 18 35 C17.34 35 16.68 35 16 35 C15.505 30.545 15.505 30.545 15 26 C14.34 26 13.68 26 13 26 C13 25.01 13 24.02 13 23 C12.34 23 11.68 23 11 23 C8 16.5 8 16.5 8 12 C7.34 12 6.68 12 6 12 C6 11.34 6 10.68 6 10 C5.34 10 4.68 10 4 10 C4 9.01 4 8.02 4 7 C3.34 7 2.68 7 2 7 C0.375 5.5 0.375 5.5 -1 4 C-1.556875 4.45375 -2.11375 4.9075 -2.6875 5.375 C-5.06441773 7.04526651 -7.31367091 7.92546836 -10 9 C-11.33790641 9.99387334 -12.67218122 10.9926892 -14 12 C-14.66 12 -15.32 12 -16 12 C-16 12.66 -16 13.32 -16 14 C-17.32 14 -18.64 14 -20 14 C-20 15.98 -20 17.96 -20 20 C-19.34 20 -18.68 20 -18 20 C-18 21.32 -18 22.64 -18 24 C-17.34 24 -16.68 24 -16 24 C-15.3490741 25.24735567 -14.70448331 26.49801832 -14.0625 27.75 C-13.70285156 28.44609375 -13.34320313 29.1421875 -12.97265625 29.859375 C-10.9572644 34.29485585 -10.90654146 38.14015613 -11 43 C-10.34 43 -9.68 43 -9 43 C-9 49.27 -9 55.54 -9 62 C-9.66 62 -10.32 62 -11 62 C-11 63.65 -11 65.3 -11 67 C-11.66 67 -12.32 67 -13 67 C-13.33 69.31 -13.66 71.62 -14 74 C-14.66 74 -15.32 74 -16 74 C-16 74.66 -16 75.32 -16 76 C-16.66 76 -17.32 76 -18 76 C-18 76.66 -18 77.32 -18 78 C-18.66 78 -19.32 78 -20 78 C-20.185625 78.598125 -20.37125 79.19625 -20.5625 79.8125 C-23.05201702 83.60089547 -27.1690661 84.46999282 -31.375 85.6875 C-35.25004756 86.14881519 -39.10273135 86.07641703 -43 86 C-43.33 85.34 -43.66 84.68 -44 84 C-43.24976563 83.90203125 -42.49953125 83.8040625 -41.7265625 83.703125 C-33.39202447 82.48548468 -25.38189672 81.23485773 -19.125 75.25 C-14.14024419 67.62625582 -12.29974964 62.08220353 -12.4375 52.875 C-12.44628174 51.86034668 -12.45506348 50.84569336 -12.46411133 49.80029297 C-12.76849433 38.52465366 -16.01543525 29.35349186 -22.1796875 19.8671875 C-23 18 -23 18 -22.8203125 15.8203125 C-22.41425781 14.91925781 -22.41425781 14.91925781 -22 14 C-21.01 13.67 -20.02 13.34 -19 13 C-19 12.34 -19 11.68 -19 11 C-13.11925192 6.61105934 -6.62265306 3.12389295 0 0 Z " fill="#262626" transform="translate(227,249)"/>
<path d="M0 0 C-0.33 0.66 -0.66 1.32 -1 2 C-2.65 2 -4.3 2 -6 2 C-6 2.66 -6 3.32 -6 4 C-12.5 7 -12.5 7 -17 7 C-17 7.66 -17 8.32 -17 9 C-18.32 9 -19.64 9 -21 9 C-21 9.66 -21 10.32 -21 11 C-24.72965139 13.03435531 -26.66905042 14 -31 14 C-31 14.66 -31 15.32 -31 16 C-31.66 16 -32.32 16 -33 16 C-33 16.66 -33 17.32 -33 18 C-33.99 18 -34.98 18 -36 18 C-36 18.66 -36 19.32 -36 20 C-40.38461538 23 -40.38461538 23 -43 23 C-43 23.66 -43 24.32 -43 25 C-43.66 25 -44.32 25 -45 25 C-45 25.66 -45 26.32 -45 27 C-46.32 27 -47.64 27 -49 27 C-49.226875 27.639375 -49.45375 28.27875 -49.6875 28.9375 C-51 31 -51 31 -53.625 31.75 C-54.40875 31.8325 -55.1925 31.915 -56 32 C-56.0825 32.598125 -56.165 33.19625 -56.25 33.8125 C-57.21576779 36.62932273 -58.48868567 37.47799132 -61 39 C-61.66 39 -62.32 39 -63 39 C-63.226875 39.556875 -63.45375 40.11375 -63.6875 40.6875 C-65.37550036 43.66159588 -67.46676517 45.72008865 -70 48 C-70.66 48 -71.32 48 -72 48 C-72 48.66 -72 49.32 -72 50 C-73.375 51.625 -73.375 51.625 -75 53 C-75.66 53 -76.32 53 -77 53 C-77 53.66 -77 54.32 -77 55 C-77.66 55 -78.32 55 -79 55 C-79 55.66 -79 56.32 -79 57 C-79.66 57 -80.32 57 -81 57 C-81.268125 57.639375 -81.53625 58.27875 -81.8125 58.9375 C-83 61 -83 61 -86 62 C-86.61067144 63.85744207 -86.61067144 63.85744207 -87 66 C-87.63654342 67.3479743 -88.29605388 68.68596724 -89 70 C-89.66 70 -90.32 70 -91 70 C-91 70.99 -91 71.98 -91 73 C-91.66 73 -92.32 73 -93 73 C-93 73.66 -93 74.32 -93 75 C-93.66 75 -94.32 75 -95 75 C-95.12246094 75.57234375 -95.24492187 76.1446875 -95.37109375 76.734375 C-96.02762868 79.09953191 -96.93723512 81.07206797 -98.0625 83.25 C-98.42472656 83.95640625 -98.78695312 84.6628125 -99.16015625 85.390625 C-99.57587891 86.18726563 -99.57587891 86.18726563 -100 87 C-100.66 87 -101.32 87 -102 87 C-102 88.32 -102 89.64 -102 91 C-102.66 91 -103.32 91 -104 91 C-104.12375 92.19625 -104.2475 93.3925 -104.375 94.625 C-104.82325054 98.27596813 -105.70446837 101.54524899 -107 105 C-107.66 105 -108.32 105 -109 105 C-109.495 105.99 -109.495 105.99 -110 107 C-109.48378772 100.16018724 -107.51409031 94.36123316 -105 88 C-104.34 88 -103.68 88 -103 88 C-102.93554688 87.34128906 -102.87109375 86.68257813 -102.8046875 86.00390625 C-101.67886694 81.80120715 -99.47412593 78.56766485 -97.125 74.9375 C-96.67769531 74.23044922 -96.23039063 73.52339844 -95.76953125 72.79492188 C-91.00581234 65.31208908 -91.00581234 65.31208908 -89 63 C-88.34 63 -87.68 63 -87 63 C-86.76410156 62.27167969 -86.52820313 61.54335938 -86.28515625 60.79296875 C-84.79462713 57.55367293 -83.02025972 55.75430654 -80.4375 53.3125 C-77.30453441 50.46343331 -77.30453441 50.46343331 -75 47 C-74.34 47 -73.68 47 -73 47 C-73 46.34 -73 45.68 -73 45 C-71.53125 43.51953125 -71.53125 43.51953125 -69.5 41.8125 C-65.82607068 38.70077339 -62.2313696 35.51847245 -58.6640625 32.28515625 C-57 31 -57 31 -55 31 C-55 30.34 -55 29.68 -55 29 C-53.5390625 27.7109375 -53.5390625 27.7109375 -51.625 26.375 C-50.99851563 25.92898437 -50.37203125 25.48296875 -49.7265625 25.0234375 C-48 24 -48 24 -46 24 C-46 23.34 -46 22.68 -46 22 C-44.50976562 20.79833984 -44.50976562 20.79833984 -42.40625 19.4609375 C-41.63063721 18.96650146 -40.85502441 18.47206543 -40.0559082 17.96264648 C-39.2124585 17.43872314 -38.36900879 16.9147998 -37.5 16.375 C-36.64301514 15.83883057 -35.78603027 15.30266113 -34.90307617 14.75024414 C-7.13327738 -2.37775913 -7.13327738 -2.37775913 0 0 Z " fill="#262626" transform="translate(238,197)"/>
<path d="M0 0 C0 0.66 0 1.32 0 2 C-2.97411124 3.23921302 -5.85262818 4.30058404 -9 5 C-9 5.66 -9 6.32 -9 7 C-10.32 7 -11.64 7 -13 7 C-13 7.66 -13 8.32 -13 9 C-15.31 9.33 -17.62 9.66 -20 10 C-20 10.66 -20 11.32 -20 12 C-21.65 12 -23.3 12 -25 12 C-25 12.66 -25 13.32 -25 14 C-26.98 14 -28.96 14 -31 14 C-31 14.66 -31 15.32 -31 16 C-34.67387495 16.85298376 -38.0447393 17.10789471 -41.8125 17.0625 C-42.78832031 17.05347656 -43.76414063 17.04445312 -44.76953125 17.03515625 C-45.87361328 17.01775391 -45.87361328 17.01775391 -47 17 C-47 17.66 -47 18.32 -47 19 C-53.27 19 -59.54 19 -66 19 C-66 18.34 -66 17.68 -66 17 C-66.99580078 17.01740234 -66.99580078 17.01740234 -68.01171875 17.03515625 C-76.78207381 17.12478032 -76.78207381 17.12478032 -81 16 C-81 15.34 -81 14.68 -81 14 C-82.32 14 -83.64 14 -85 14 C-85 13.34 -85 12.68 -85 12 C-85.99 12 -86.98 12 -88 12 C-88.33 11.34 -88.66 10.68 -89 10 C-91.52733235 9.34444881 -91.52733235 9.34444881 -94 9 C-93.67 11.97 -93.34 14.94 -93 18 C-93.99 17.67 -94.98 17.34 -96 17 C-96 13.04 -96 9.08 -96 5 C-92 5 -92 5 -89.1875 7.1875 C-79.47007267 14.4600309 -66.76493898 16 -55 16 C-53.94425781 16 -52.88851562 16 -51.80078125 16 C-34.08537778 15.28871655 -15.45287622 -0.83529061 0 0 Z " fill="#232323" transform="translate(170,185)"/>
<path d="M0 0 C0.66 0.33 1.32 0.66 2 1 C2 1.66 2 2.32 2 3 C1.34 3 0.68 3 0 3 C0 3.66 0 4.32 0 5 C-0.66 5 -1.32 5 -2 5 C-2 5.66 -2 6.32 -2 7 C-3.71484375 8.65625 -3.71484375 8.65625 -5.9375 10.5 C-8.92045179 12.88926999 -8.92045179 12.88926999 -11 16 C-11.66 16 -12.32 16 -13 16 C-13.309375 16.99 -13.309375 16.99 -13.625 18 C-14.85081168 20.6744982 -15.97427653 22.26955918 -17.8125 24.5 C-25.46434029 34.57711645 -27.49578628 45.70278356 -26 58 C-24.96916069 61.08366952 -23.76643013 63.23995292 -22 66 C-22 66.66 -22 67.32 -22 68 C-21.34 68 -20.68 68 -20 68 C-20 68.66 -20 69.32 -20 70 C-19.30132812 70.20496094 -18.60265625 70.40992188 -17.8828125 70.62109375 C-16.97273437 70.89050781 -16.06265625 71.15992188 -15.125 71.4375 C-14.22007812 71.70433594 -13.31515625 71.97117187 -12.3828125 72.24609375 C-10 73 -10 73 -8 74 C-8 74.66 -8 75.32 -8 76 C-10.97 75.67 -13.94 75.34 -17 75 C-17 74.34 -17 73.68 -17 73 C-17.66 73 -18.32 73 -19 73 C-19 72.34 -19 71.68 -19 71 C-19.86625 70.9071875 -19.86625 70.9071875 -20.75 70.8125 C-24.57715954 69.43047017 -26.19474565 66.67561436 -27.91796875 63.08984375 C-31.95901687 52.63624041 -30.11274761 42.4499384 -27 32 C-26.34 32 -25.68 32 -25 32 C-25 31.01 -25 30.02 -25 29 C-24.34 29 -23.68 29 -23 29 C-23 27.68 -23 26.36 -23 25 C-22.34 25 -21.68 25 -21 25 C-20.690625 24.21625 -20.38125 23.4325 -20.0625 22.625 C-19 20 -19 20 -18 18 C-17.34 18 -16.68 18 -16 18 C-16 17.34 -16 16.68 -16 16 C-15.34 16 -14.68 16 -14 16 C-13.773125 15.46375 -13.54625 14.9275 -13.3125 14.375 C-11.54429911 11.17539839 -9.46329797 8.70962777 -7 6 C-6.34 6 -5.68 6 -5 6 C-5 5.34 -5 4.68 -5 4 C-3.35 3.34 -1.7 2.68 0 2 C0 1.34 0 0.68 0 0 Z " fill="#252525" transform="translate(190,258)"/>
<path d="M0 0 C0.33 0.66 0.66 1.32 1 2 C1.66 2 2.32 2 3 2 C4.46416909 4.64657368 5.91598119 7.29870925 7.3515625 9.9609375 C8.32215287 11.75031974 9.30985152 13.53091517 10.3359375 15.2890625 C19.08273829 31.05558877 21.23799407 50.28150671 19 68 C18.34 68.99 17.68 69.98 17 71 C16 70 16 70 15.90234375 68.15234375 C15.93489583 66.1015625 15.96744792 64.05078125 16 62 C16.66 62 17.32 62 18 62 C17.85966889 60.02043559 17.7125877 58.04134859 17.5625 56.0625 C17.48128906 54.96035156 17.40007812 53.85820312 17.31640625 52.72265625 C17.29581916 50.08890097 17.29581916 50.08890097 16 49 C15.92773498 47.14712498 15.9161878 45.29166122 15.9375 43.4375 C15.94652344 42.42558594 15.95554688 41.41367187 15.96484375 40.37109375 C15.97644531 39.58863281 15.98804688 38.80617188 16 38 C15.34 38 14.68 38 14 38 C14 35.36 14 32.72 14 30 C13.34 30 12.68 30 12 30 C11.67 27.03 11.34 24.06 11 21 C10.34 21 9.68 21 9 21 C9 20.01 9 19.02 9 18 C8.34 18 7.68 18 7 18 C4 11.5 4 11.5 4 7 C3.34 7 2.68 7 2 7 C2 6.34 2 5.68 2 5 C1.34 5 0.68 5 0 5 C0 4.01 0 3.02 0 2 C-0.66 1.67 -1.32 1.34 -2 1 C-1.34 0.67 -0.68 0.34 0 0 Z " fill="#1B1B1B" transform="translate(231,254)"/>
<path d="M0 0 C0 0.66 0 1.32 0 2 C0.66 2 1.32 2 2 2 C2 2.66 2 3.32 2 4 C2.66 4 3.32 4 4 4 C10.55911544 18.08636601 10.55911544 18.08636601 10 26 C9.34 27.32 8.68 28.64 8 30 C8 26.37 8 22.74 8 19 C7.34 19 6.68 19 6 19 C4.80712589 15.12315913 4 12.08378077 4 8 C3.34 8 2.68 8 2 8 C1.34 6.35 0.68 4.7 0 3 C-0.99 3 -1.98 3 -3 3 C-3 2.34 -3 1.68 -3 1 C-12.57 1 -22.14 1 -32 1 C-32 1.66 -32 2.32 -32 3 C-33.32 3 -34.64 3 -36 3 C-35.67 2.01 -35.34 1.02 -35 0 C-24.62860348 -4.07807339 -9.92653086 -5.81065221 0 0 Z " fill="#252525" transform="translate(275,194)"/>
<path d="M0 0 C1.32 0 2.64 0 4 0 C13.1465158 16.37226328 14.65422294 30.6389817 14 49 C13.505 47.515 13.505 47.515 13 46 C12.34 46 11.68 46 11 46 C11 47.65 11 49.3 11 51 C10.67 51 10.34 51 10 51 C10 49.02 10 47.04 10 45 C10.66 45 11.32 45 12 45 C11.85975781 42.52039864 11.7130815 40.04147598 11.5625 37.5625 C11.52318359 36.85544922 11.48386719 36.14839844 11.44335938 35.41992188 C11.52375562 31.91309581 11.52375562 31.91309581 10 29 C9.42432192 25.90573033 8.96973401 22.79948781 8.5 19.6875 C8.27904792 17.09043376 8.27904792 17.09043376 7 16 C6.95919217 14.00041636 6.95745644 11.99954746 7 10 C6.34 10 5.68 10 5 10 C5 9.01 5 8.02 5 7 C4.34 7 3.68 7 3 7 C2.690625 6.21625 2.38125 5.4325 2.0625 4.625 C1.07124962 2.07669872 1.07124962 2.07669872 0 0 Z " fill="#1D1D1D" transform="translate(233,78)"/>
<path d="M0 0 C0.77923828 0.00902344 1.55847656 0.01804687 2.36132812 0.02734375 C4.26185447 0.05066309 6.16222008 0.08652414 8.0625 0.125 C8.0625 0.785 8.0625 1.445 8.0625 2.125 C10.0425 2.125 12.0225 2.125 14.0625 2.125 C14.0625 2.785 14.0625 3.445 14.0625 4.125 C14.68125 4.2075 15.3 4.29 15.9375 4.375 C18.0625 5.125 18.0625 5.125 19.3125 7.1875 C19.56 7.826875 19.8075 8.46625 20.0625 9.125 C17.38209121 8.12941959 15.03881456 7.10981703 12.625 5.5625 C6.43608415 2.09066916 -1.57367456 2.45223491 -8.375 3.8125 C-16.81752601 6.50342054 -16.81752601 6.50342054 -22.9375 12.125 C-23.5975 12.125 -24.2575 12.125 -24.9375 12.125 C-24.9375 11.135 -24.9375 10.145 -24.9375 9.125 C-24.2775 9.125 -23.6175 9.125 -22.9375 9.125 C-22.9375 8.465 -22.9375 7.805 -22.9375 7.125 C-22.2775 7.125 -21.6175 7.125 -20.9375 7.125 C-20.9375 6.465 -20.9375 5.805 -20.9375 5.125 C-19.2875 4.795 -17.6375 4.465 -15.9375 4.125 C-15.9375 3.465 -15.9375 2.805 -15.9375 2.125 C-10.46690419 0.27967286 -5.74930072 -0.12809068 0 0 Z " fill="#363636" transform="translate(180.9375,88.875)"/>
<path d="M0 0 C0.66 0 1.32 0 2 0 C2 2.97 2 5.94 2 9 C1.34 9 0.68 9 0 9 C0 12.3 0 15.6 0 19 C0.66 19 1.32 19 2 19 C2 22.63 2 26.26 2 30 C2.66 30 3.32 30 4 30 C4 31.65 4 33.3 4 35 C4.66 35 5.32 35 6 35 C6.33 37.31 6.66 39.62 7 42 C7.66 42 8.32 42 9 42 C9 43.32 9 44.64 9 46 C10.32 46.66 11.64 47.32 13 48 C12.01 48.495 12.01 48.495 11 49 C10.01 48.34 9.02 47.68 8 47 C8 46.34 8 45.68 8 45 C7.34 45 6.68 45 6 45 C5.19936896 43.33762104 4.40999632 41.66981875 3.625 40 C3.18414062 39.071875 2.74328125 38.14375 2.2890625 37.1875 C-0.86774158 29.38158445 -1.28795524 22.52528509 -1.1875 14.1875 C-1.18685547 13.15173828 -1.18621094 12.11597656 -1.18554688 11.04882812 C-1.14095052 3.42285156 -1.14095052 3.42285156 0 0 Z " fill="#252525" transform="translate(127,305)"/>
<path d="M0 0 C0.66 0 1.32 0 2 0 C2.02578125 0.99 2.0515625 1.98 2.078125 3 C2.36921779 10.5407348 3.00049175 16.42016384 7 23 C7 23.66 7 24.32 7 25 C7.66 25 8.32 25 9 25 C9 25.66 9 26.32 9 27 C9.69867188 27.20496094 10.39734375 27.40992188 11.1171875 27.62109375 C12.02726563 27.89050781 12.93734375 28.15992188 13.875 28.4375 C14.77992188 28.70433594 15.68484375 28.97117187 16.6171875 29.24609375 C19 30 19 30 21 31 C21 31.66 21 32.32 21 33 C18.03 32.67 15.06 32.34 12 32 C12 31.34 12 30.68 12 30 C11.34 30 10.68 30 10 30 C10 29.34 10 28.68 10 28 C9.13375 27.9071875 9.13375 27.9071875 8.25 27.8125 C4.42284046 26.43047017 2.80525435 23.67561436 1.08203125 20.08984375 C-1.33320011 13.84199174 -1.56060257 7.64098425 -1 1 C-0.67 0.67 -0.34 0.34 0 0 Z " fill="#262626" transform="translate(161,301)"/>
<path d="M0 0 C0.99 0 1.98 0 3 0 C2.53762014 6.2491339 1.04721202 10.74074006 -1.875 16.25 C-2.40287109 17.29027344 -2.40287109 17.29027344 -2.94140625 18.3515625 C-6.46572506 25.19057521 -6.46572506 25.19057521 -9 28 C-9.66 28 -10.32 28 -11 28 C-11.226875 28.5775 -11.45375 29.155 -11.6875 29.75 C-13.33038023 32.5663661 -15.39533227 34.08077114 -18 36 C-18.99 35.34 -19.98 34.68 -21 34 C-20.01 34 -19.02 34 -18 34 C-18 33.34 -18 32.68 -18 32 C-17.34 32 -16.68 32 -16 32 C-16 31.34 -16 30.68 -16 30 C-14.3545622 28.31237149 -12.68711423 26.6459651 -11 25 C-10.67 24.34 -10.34 23.68 -10 23 C-9.34 23 -8.68 23 -8 23 C-7.67 21.35 -7.34 19.7 -7 18 C-6.34 18 -5.68 18 -5 18 C-5 16.68 -5 15.36 -5 14 C-4.34 14 -3.68 14 -3 14 C-2.855625 13.030625 -2.71125 12.06125 -2.5625 11.0625 C-2 8 -2 8 -1 7 C-0.63239269 4.67182036 -0.29758419 2.3381615 0 0 Z " fill="#222222" transform="translate(245,326)"/>
<path d="M0 0 C2.31459868 1.81817001 2.95377187 2.75615543 3.51171875 5.69921875 C3.59873047 7.17841797 3.59873047 7.17841797 3.6875 8.6875 C3.75324219 9.68136719 3.81898437 10.67523438 3.88671875 11.69921875 C3.92410156 12.45847656 3.96148437 13.21773437 4 14 C4.66 14 5.32 14 6 14 C6 15.98 6 17.96 6 20 C6.66 20 7.32 20 8 20 C8 20.99 8 21.98 8 23 C8.66 23 9.32 23 10 23 C10 24.32 10 25.64 10 27 C10.66 27 11.32 27 12 27 C12 27.99 12 28.98 12 30 C10.15625 29.78515625 10.15625 29.78515625 8 29 C4.03878565 23.27696648 2.32828369 16.11295766 0.625 9.4375 C0.44517578 8.73488037 0.26535156 8.03226074 0.08007812 7.30834961 C-1.12859758 2.25719516 -1.12859758 2.25719516 0 0 Z " fill="#242424" transform="translate(114,132)"/>
<path d="M0 0 C6.82751718 3.35981658 13.40415147 7.21089552 20 11 C19.67 11.66 19.34 12.32 19 13 C16.525 12.505 16.525 12.505 14 12 C14 11.34 14 10.68 14 10 C12.68 10 11.36 10 10 10 C10 9.34 10 8.68 10 8 C9.01 8 8.02 8 7 8 C6.67 7.34 6.34 6.68 6 6 C3.47266765 5.34444881 3.47266765 5.34444881 1 5 C1.33 7.97 1.66 10.94 2 14 C1.01 13.67 0.02 13.34 -1 13 C-1.02686553 11.02090602 -1.04633375 9.04171029 -1.0625 7.0625 C-1.07410156 5.96035156 -1.08570312 4.85820312 -1.09765625 3.72265625 C-1 1 -1 1 0 0 Z " fill="#202020" transform="translate(75,189)"/>
<path d="M0 0 C0.66 0.99 1.32 1.98 2 3 C0.35 5.97 -1.3 8.94 -3 12 C-3.66 12 -4.32 12 -5 12 C-5 12.66 -5 13.32 -5 14 C-7.375 16.625 -7.375 16.625 -10 19 C-10.66 19 -11.32 19 -12 19 C-12 19.66 -12 20.32 -12 21 C-12.66 21 -13.32 21 -14 21 C-14.33 21.99 -14.66 22.98 -15 24 C-15.33 23.34 -15.66 22.68 -16 22 C-14.71632558 20.16106176 -13.42283239 18.32897375 -12.125 16.5 C-11.04605469 14.96859375 -11.04605469 14.96859375 -9.9453125 13.40625 C-9.30335938 12.6121875 -8.66140625 11.818125 -8 11 C-7.34 11 -6.68 11 -6 11 C-5.7525 10.29875 -5.505 9.5975 -5.25 8.875 C-3.83911974 5.62997541 -2.02104602 2.89683263 0 0 Z " fill="#202020" transform="translate(205,146)"/>
<path d="M0 0 C0.33 0.99 0.66 1.98 1 3 C0.34 3 -0.32 3 -1 3 C-1.185625 3.598125 -1.37125 4.19625 -1.5625 4.8125 C-4.05201702 8.60089547 -8.1690661 9.46999282 -12.375 10.6875 C-16.25004756 11.14881519 -20.10273135 11.07641703 -24 11 C-24.33 10.34 -24.66 9.68 -25 9 C-24.24976563 8.90203125 -23.49953125 8.8040625 -22.7265625 8.703125 C-10.18504825 6.93372822 -10.18504825 6.93372822 0 0 Z " fill="#222222" transform="translate(208,324)"/>
<path d="M0 0 C0.33 0.66 0.66 1.32 1 2 C-2.75 5 -2.75 5 -5 5 C-5.226875 5.61875 -5.45375 6.2375 -5.6875 6.875 C-7.37929835 9.61410209 -8.99244161 10.05024472 -12 11 C-12 11.66 -12 12.32 -12 13 C-13.42578125 14.32421875 -13.42578125 14.32421875 -15.3125 15.6875 C-15.92738281 16.14511719 -16.54226562 16.60273438 -17.17578125 17.07421875 C-17.77777344 17.37972656 -18.37976563 17.68523437 -19 18 C-19.99 17.67 -20.98 17.34 -22 17 C-21.34 17 -20.68 17 -20 17 C-20 16.34 -20 15.68 -20 15 C-19.34 15 -18.68 15 -18 15 C-18 14.34 -18 13.68 -18 13 C-16.35 12.34 -14.7 11.68 -13 11 C-13 10.34 -13 9.68 -13 9 C-12.071875 8.87625 -12.071875 8.87625 -11.125 8.75 C-10.42375 8.5025 -9.7225 8.255 -9 8 C-8.731875 7.401875 -8.46375 6.80375 -8.1875 6.1875 C-6.32830113 2.76265997 -3.41854735 1.77258011 0 0 Z " fill="#2E2E2F" transform="translate(212,183)"/>
<path d="M0 0 C-2.03529587 2.03529587 -3.23417382 2.6384272 -5.875 3.625 C-6.89207031 4.01558594 -6.89207031 4.01558594 -7.9296875 4.4140625 C-10 5 -10 5 -14 5 C-14 5.66 -14 6.32 -14 7 C-15.32 7 -16.64 7 -18 7 C-18.33 7.99 -18.66 8.98 -19 10 C-22.0625 11.1875 -22.0625 11.1875 -25 12 C-23.66619327 7.99857982 -21.9328735 7.49928712 -18.3125 5.4375 C-17.27738281 4.83808594 -16.24226562 4.23867188 -15.17578125 3.62109375 C-9.99758022 0.9778546 -5.82513337 -0.2773873 0 0 Z " fill="#2C2C2C" transform="translate(164,51)"/>
<path d="M0 0 C-0.33 1.32 -0.66 2.64 -1 4 C-1.66 4 -2.32 4 -3 4 C-3.27328125 4.58394531 -3.5465625 5.16789063 -3.828125 5.76953125 C-5.69112546 9.31544213 -8.00690205 12.33010042 -11 15 C-14.375 15.9375 -14.375 15.9375 -17 16 C-15.71937515 14.2925002 -14.38232443 12.62626404 -13 11 C-12.34 11 -11.68 11 -11 11 C-11 10.34 -11 9.68 -11 9 C-10.34 9 -9.68 9 -9 9 C-8.773125 8.443125 -8.54625 7.88625 -8.3125 7.3125 C-6.49644015 4.11277551 -3.9498923 0 0 0 Z " fill="#262626" transform="translate(226,168)"/>
<path d="M0 0 C3.43927579 1.2419607 6.25207819 2.55740284 9 5 C9 5.66 9 6.32 9 7 C9.66 7 10.32 7 11 7 C11 7.66 11 8.32 11 9 C11.78375 9.309375 12.5675 9.61875 13.375 9.9375 C16 11 16 11 18 12 C17.67 12.66 17.34 13.32 17 14 C10.25 11.125 10.25 11.125 8 10 C8 9.34 8 8.68 8 8 C7.34 8 6.68 8 6 8 C6 7.34 6 6.68 6 6 C5.34 6 4.68 6 4 6 C2.61061923 4.03852126 1.2739589 2.03833424 0 0 Z " fill="#303030" transform="translate(136,353)"/>
<path d="M0 0 C0.99 0.33 1.98 0.66 3 1 C3 3.97 3 6.94 3 10 C3.66 10 4.32 10 5 10 C5 11.98 5 13.96 5 16 C5.66 16 6.32 16 7 16 C6.67 17.32 6.34 18.64 6 20 C4 19 4 19 3.18359375 17.03125 C1.50082778 11.3221801 0.47860407 5.93469051 0 0 Z " fill="#313131" transform="translate(74,202)"/>
<path d="M0 0 C0.66 0.33 1.32 0.66 2 1 C2 2.65 2 4.3 2 6 C1.34 6 0.68 6 0 6 C0 7.65 0 9.3 0 11 C-0.66 11 -1.32 11 -2 11 C-2.33 13.31 -2.66 15.62 -3 18 C-3.66 18 -4.32 18 -5 18 C-5 18.66 -5 19.32 -5 20 C-5.66 20 -6.32 20 -7 20 C-6.02251899 16.84198444 -4.99315998 13.98714077 -3.4375 11.0625 C-1.84610643 7.67213978 -1.43513984 4.69868862 -1 1 C-0.67 0.67 -0.34 0.34 0 0 Z " fill="#2C2C2C" transform="translate(216,305)"/>
<path d="M0 0 C0.99 0 1.98 0 3 0 C3.33 1.65 3.66 3.3 4 5 C4.66 5 5.32 5 6 5 C6 5.66 6 6.32 6 7 C6.66 7 7.32 7 8 7 C8 7.66 8 8.32 8 9 C10.64 9.33 13.28 9.66 16 10 C16 10.33 16 10.66 16 11 C9.25705751 11.70978342 9.25705751 11.70978342 5.9453125 9.83984375 C2.98545079 7.43879411 1.25907128 5.79448525 0.0625 2.125 C0.041875 1.42375 0.02125 0.7225 0 0 Z " fill="#292929" transform="translate(80,221)"/>
<path d="M0 0 C0.33 0 0.66 0 1 0 C1.22531972 3.29073662 1.42735982 6.58249419 1.625 9.875 C1.68945312 10.81214844 1.75390625 11.74929687 1.8203125 12.71484375 C1.871875 13.61074219 1.9234375 14.50664063 1.9765625 15.4296875 C2.02893066 16.25710449 2.08129883 17.08452148 2.13525391 17.93701172 C2 20 2 20 0 22 C-1.3097806 18.02907787 -1.14716632 14.0053242 -1.125 9.875 C-1.12886719 9.14667969 -1.13273437 8.41835937 -1.13671875 7.66796875 C-1.12671034 2.25342069 -1.12671034 2.25342069 0 0 Z " fill="#2E2E2E" transform="translate(113,112)"/>
<path d="M0 0 C0 3 0 3 -1 5 C-4.71469824 7.1462701 -6.64144712 8 -11 8 C-11 8.66 -11 9.32 -11 10 C-12.65 10.33 -14.3 10.66 -16 11 C-12.92486954 7.62631319 -9.71481144 5.49098038 -5.75 3.25 C-4.67234375 2.63640625 -3.5946875 2.0228125 -2.484375 1.390625 C-1.66453125 0.93171875 -0.8446875 0.4728125 0 0 Z " fill="#2D2D2D" transform="translate(218,203)"/>
<path d="M0 0 C2.78717889 0.08197585 4.51752767 0.56235395 6.59765625 2.44921875 C9.49887023 5.73536039 11.71038728 8.74427801 13 13 C12.01 12.67 11.02 12.34 10 12 C10 11.34 10 10.68 10 10 C9.34 10 8.68 10 8 10 C8 9.34 8 8.68 8 8 C7.34 8 6.68 8 6 8 C3.70351351 5.4385343 3 4.52032428 3 1 C2.01 0.67 1.02 0.34 0 0 Z " fill="#242424" transform="translate(223,66)"/>
<path d="M0 0 C0.66 0 1.32 0 2 0 C2 3.63 2 7.26 2 11 C1.01 11.33 0.02 11.66 -1 12 C-1.02687279 10.18757948 -1.04633715 8.37504767 -1.0625 6.5625 C-1.07410156 5.55316406 -1.08570313 4.54382813 -1.09765625 3.50390625 C-1 1 -1 1 0 0 Z " fill="#303031" transform="translate(161,301)"/>
<path d="M0 0 C0 0.66 0 1.32 0 2 C-3.3 2 -6.6 2 -10 2 C-10 2.66 -10 3.32 -10 4 C-12.31 3.67 -14.62 3.34 -17 3 C-16.67 2.34 -16.34 1.68 -16 1 C-13.671875 0.5859375 -13.671875 0.5859375 -10.75 0.375 C-9.79609375 0.30023438 -8.8421875 0.22546875 -7.859375 0.1484375 C-5.23259147 0.01207442 -2.62962569 -0.02879152 0 0 Z " fill="#292929" transform="translate(133,200)"/>
<path d="M0 0 C2.64 0.33 5.28 0.66 8 1 C8 1.66 8 2.32 8 3 C12.95 3 17.9 3 23 3 C23 3.33 23 3.66 23 4 C20.29139335 4.05429278 17.58389099 4.09381211 14.875 4.125 C14.11445312 4.14175781 13.35390625 4.15851563 12.5703125 4.17578125 C7.96729269 4.21546246 4.33535996 3.75907577 0 2 C0 1.34 0 0.68 0 0 Z " fill="#373737" transform="translate(89,231)"/>
<path d="M0 0 C-0.99 0.33 -1.98 0.66 -3 1 C-3 1.66 -3 2.32 -3 3 C-7.38461538 6 -7.38461538 6 -10 6 C-10.33 6.66 -10.66 7.32 -11 8 C-11 6.68 -11 5.36 -11 4 C-7.35428203 0.947771 -4.79142225 -0.56369674 0 0 Z " fill="#242424" transform="translate(205,214)"/>
<path d="M0 0 C0.99 0 1.98 0 3 0 C3 0.99 3 1.98 3 3 C3.66 3 4.32 3 5 3 C5 4.32 5 5.64 5 7 C5.66 7 6.32 7 7 7 C7.33 9.31 7.66 11.62 8 14 C4.83454798 12.41727399 4.28879378 9.60316869 2.875 6.4375 C2.33617187 5.23996094 1.79734375 4.04242188 1.2421875 2.80859375 C0.83226562 1.88175781 0.42234375 0.95492188 0 0 Z " fill="#2C2C2C" transform="translate(204,266)"/>
<path d="M0 0 C-1.32 0.33 -2.64 0.66 -4 1 C-4 1.66 -4 2.32 -4 3 C-5.98 3 -7.96 3 -10 3 C-10 3.66 -10 4.32 -10 5 C-11.32 5 -12.64 5 -14 5 C-13.67 4.01 -13.34 3.02 -13 2 C-8.56971812 0.34950283 -4.70949382 -0.22973141 0 0 Z " fill="#272727" transform="translate(253,192)"/>
<path d="M0 0 C0.66 0.33 1.32 0.66 2 1 C1.67 3.97 1.34 6.94 1 10 C0.01 10.33 -0.98 10.66 -2 11 C-1 3.57142857 -1 3.57142857 0 0 Z " fill="#1F1F1F" transform="translate(163,290)"/>
<path d="M0 0 C4.75 0.875 4.75 0.875 7 2 C7 2.66 7 3.32 7 4 C7.99 4 8.98 4 10 4 C9.67 4.99 9.34 5.98 9 7 C8.67 6.34 8.34 5.68 8 5 C6.824375 4.7834375 6.824375 4.7834375 5.625 4.5625 C2.74482995 3.9453207 1.79809178 3.27127383 0 1 C0 0.67 0 0.34 0 0 Z " fill="#212121" transform="translate(273,231)"/>
<path d="M0 0 C0.66 0 1.32 0 2 0 C2 0.66 2 1.32 2 2 C2.66 2 3.32 2 4 2 C4 2.66 4 3.32 4 4 C4.66 4 5.32 4 6 4 C9 7.46153846 9 7.46153846 9 10 C8.01 10 7.02 10 6 10 C5.34 8.35 4.68 6.7 4 5 C3.34 5 2.68 5 2 5 C1.34 3.35 0.68 1.7 0 0 Z " fill="#2E2E2E" transform="translate(200,96)"/>
<path d="M0 0 C0.33 0 0.66 0 1 0 C0.67 3.3 0.34 6.6 0 10 C-0.66 10 -1.32 10 -2 10 C-2.33 10.66 -2.66 11.32 -3 12 C-2.14285714 3.42857143 -2.14285714 3.42857143 0 0 Z " fill="#272727" transform="translate(131,292)"/>
<path d="M0 0 C3.63 0 7.26 0 11 0 C11.33 0.99 11.66 1.98 12 3 C8.7 3 5.4 3 2 3 C2 2.34 2 1.68 2 1 C1.34 0.67 0.68 0.34 0 0 Z " fill="#1D1D1D" transform="translate(106,201)"/>
<path d="M0 0 C-1.32 0.33 -2.64 0.66 -4 1 C-4 1.66 -4 2.32 -4 3 C-5.96466413 4.06775224 -7.96855359 5.06553465 -10 6 C-10.66 5.67 -11.32 5.34 -12 5 C-10.625 3.5 -10.625 3.5 -9 2 C-8.34 2 -7.68 2 -7 2 C-7 1.34 -7 0.68 -7 0 C-2.25 -1.125 -2.25 -1.125 0 0 Z " fill="#2C2C2C" transform="translate(176,212)"/>
<path d="M0 0 C-0.33 1.32 -0.66 2.64 -1 4 C-1.66 4 -2.32 4 -3 4 C-3.268125 4.61875 -3.53625 5.2375 -3.8125 5.875 C-5 8 -5 8 -8 10 C-7.71125 9.443125 -7.4225 8.88625 -7.125 8.3125 C-5.94039559 5.97193593 -5.94039559 5.97193593 -5 3.3125 C-3.77263969 0.47422929 -3.07282423 0 0 0 Z " fill="#2E2E2E" transform="translate(226,168)"/>
<path d="M0 0 C0.99 0 1.98 0 3 0 C2.67 2.97 2.34 5.94 2 9 C1.34 8.67 0.68 8.34 0 8 C0 5.36 0 2.72 0 0 Z " fill="#262624" transform="translate(247,316)"/>
<path d="M0 0 C0.33 0.66 0.66 1.32 1 2 C1.66 2 2.32 2 3 2 C6 7.75 6 7.75 6 10 C5.34 10 4.68 10 4 10 C4 9.01 4 8.02 4 7 C3.34 7 2.68 7 2 7 C2 6.34 2 5.68 2 5 C1.34 5 0.68 5 0 5 C0 4.01 0 3.02 0 2 C-0.66 1.67 -1.32 1.34 -2 1 C-1.34 0.67 -0.68 0.34 0 0 Z " fill="#1F1F1F" transform="translate(231,254)"/>
<path d="M0 0 C0 0.66 0 1.32 0 2 C-0.99 2 -1.98 2 -3 2 C-3 2.66 -3 3.32 -3 4 C-4.65 4.66 -6.3 5.32 -8 6 C-8.33 5.01 -8.66 4.02 -9 3 C-8.01 3 -7.02 3 -6 3 C-6 2.34 -6 1.68 -6 1 C-3.92446352 0.4465236 -2.15634036 0 0 0 Z " fill="#363636" transform="translate(219,366)"/>
<path d="M0 0 C0.99 0 1.98 0 3 0 C3 1.65 3 3.3 3 5 C3.66 5 4.32 5 5 5 C4.67 6.32 4.34 7.64 4 9 C4 8.01 4 7.02 4 6 C3.01 6 2.02 6 1 6 C0.67 4.02 0.34 2.04 0 0 Z " fill="#202020" transform="translate(128,335)"/>
<path d="M0 0 C0.33 0.66 0.66 1.32 1 2 C-2.75 5 -2.75 5 -5 5 C-5 5.66 -5 6.32 -5 7 C-5.66 7 -6.32 7 -7 7 C-6.875 5.1875 -6.875 5.1875 -6 3 C-2.9375 1.25 -2.9375 1.25 0 0 Z " fill="#373737" transform="translate(212,183)"/>
<path d="M0 0 C0.99 0.495 0.99 0.495 2 1 C1.01 1.495 1.01 1.495 0 2 C0 1.34 0 0.68 0 0 Z M-2 2 C-1.34 2 -0.68 2 0 2 C-0.66 4.31 -1.32 6.62 -2 9 C-2.99 8.34 -3.98 7.68 -5 7 C-3.625 4.5 -3.625 4.5 -2 2 Z " fill="#1F1F1F" transform="translate(174,274)"/>
<path d="M0 0 C0.99 0.33 1.98 0.66 3 1 C3.125 3.875 3.125 3.875 3 7 C2.34 7.66 1.68 8.32 1 9 C0.67 6.03 0.34 3.06 0 0 Z " fill="#373737" transform="translate(74,202)"/>
<path d="M0 0 C2.97 0.495 2.97 0.495 6 1 C6 1.66 6 2.32 6 3 C6.99 3 7.98 3 9 3 C9 3.66 9 4.32 9 5 C6.03 4.01 3.06 3.02 0 2 C0 1.34 0 0.68 0 0 Z " fill="#3C3C3C" transform="translate(151,366)"/>
<path d="M0 0 C0.66 0 1.32 0 2 0 C2 1.32 2 2.64 2 4 C2.66 4 3.32 4 4 4 C4 4.99 4 5.98 4 7 C2.68 6.67 1.36 6.34 0 6 C0 4.02 0 2.04 0 0 Z " fill="#1F1F1F" transform="translate(122,155)"/>
<path d="M0 0 C0.33 0.66 0.66 1.32 1 2 C1.639375 2.12375 2.27875 2.2475 2.9375 2.375 C5 3 5 3 6.25 5.0625 C6.4975 5.701875 6.745 6.34125 7 7 C4.08482708 5.92598892 2.22189824 5.22189824 0 3 C0 2.01 0 1.02 0 0 Z " fill="#353535" transform="translate(194,91)"/>
<path d="M0 0 C-3.00617269 3.00617269 -5.82381598 2.59585316 -10 3 C-8.0130571 -0.97388579 -3.91761109 -0.08705802 0 0 Z " fill="#323232" transform="translate(164,51)"/>
<path d="M0 0 C0.99 0 1.98 0 3 0 C3.33 2.64 3.66 5.28 4 8 C3.34 8 2.68 8 2 8 C1.34 5.36 0.68 2.72 0 0 Z " fill="#2D2D2D" transform="translate(279,204)"/>
</svg>